<?xml version="1.0" encoding="UTF-8"?>
<svg width="75px" height="58px" viewBox="0 0 75 58" version="1.1" xmlns="http://www.w3.org/2000/svg" xmlns:xlink="http://www.w3.org/1999/xlink">
    <title>Cloud1</title>
    <defs>
        <filter x="-21.1%" y="-30.0%" width="142.1%" height="160.0%" filterUnits="objectBoundingBox" id="filter-1">
            <feOffset dx="0" dy="2" in="SourceAlpha" result="shadowOffsetOuter1"></feOffset>
            <feGaussianBlur stdDeviation="2" in="shadowOffsetOuter1" result="shadowBlurOuter1"></feGaussianBlur>
            <feColorMatrix values="0 0 0 0 0   0 0 0 0 0   0 0 0 0 0  0 0 0 0.5 0" type="matrix" in="shadowBlurOuter1" result="shadowMatrixOuter1"></feColorMatrix>
            <feMerge>
                <feMergeNode in="shadowMatrixOuter1"></feMergeNode>
                <feMergeNode in="SourceGraphic"></feMergeNode>
            </feMerge>
        </filter>
    </defs>
    <g id="Page-1" stroke="none" stroke-width="1" fill="none" fill-rule="evenodd">
        <g id="Home/content&gt;min.marg.16px" transform="translate(-40.000000, -129.000000)" fill-rule="nonzero">
            <g id="Brand-Image" transform="translate(-1.000000, -53.000000)">
                <g id="Cloud1" filter="url(#filter-1)" transform="translate(50.000000, 191.000000)">
                    <path d="M56.9471084,17.5014804 C57.6924839,26.1241798 50.3132666,28.3176735 50.3132666,28.3176735 C50.3132666,28.3176735 49.8541153,33.1478979 44.4248002,35.3519809 C39.2071719,37.4698369 34.3622312,35.2763431 34.3622312,35.2763431 C34.3622312,35.2763431 28.9209902,41.1004471 20.200097,39.814606 C11.4792038,38.5287649 9.76484023,31.6457329 9.76484023,31.6457329 C9.76484023,31.6457329 -0.0741161685,31.4944574 0,21.2833661 C0.0749589284,11.0722747 10.8083659,10.9209992 10.8083659,10.9209992 C10.8083659,10.9209992 10.7338284,7.21475125 14.9079311,4.94561983 C19.0820338,2.67648841 22.4362235,4.56743126 22.4362235,4.56743126 C22.4362235,4.56743126 25.7158756,-0.424657865 34.3622312,0.029168419 C43.0085868,0.482994703 45.2447133,7.44166439 45.2447133,7.44166439 C45.2447133,7.44166439 56.0943988,7.63075868 56.9471084,17.5014804 Z" id="Path" fill="#FFFFFF"></path>
                    <circle id="Oval" fill="#003459" cx="43" cy="17" r="2"></circle>
                    <circle id="Oval" fill="#FFFFFF" cx="44" cy="17" r="1"></circle>
                    <circle id="Oval" fill="#003459" cx="32" cy="17" r="2"></circle>
                    <circle id="Oval" fill="#FFFFFF" cx="33" cy="17" r="1"></circle>
                    <path d="M34,23 C34,23 35.3280232,24 37.6208062,24 C39.9135892,24 41,23 41,23 C41,23 40.0352402,23.5005834 37.6208062,23.5005834 C35.2063722,23.4994166 34,23 34,23 Z" id="Path" fill="#003459"></path>
                    <path d="M30.4149115,14.9359602 C30.5254444,14.8362281 30.611595,14.7899755 30.7708923,14.7104789 C31.1089928,14.541368 31.4926068,14.4503083 31.8794718,14.4372998 C32.3167268,14.4228458 32.7621091,14.4633168 33.1863602,14.5659397 C33.3115224,14.5962929 33.4350592,14.6309824 33.5537194,14.6743441 C33.5065804,14.6569994 33.6089858,14.6974704 33.6333681,14.7090336 C33.9097002,14.8420097 34.1551482,14.467653 33.878816,14.3346769 C33.7048893,14.2508441 33.5065804,14.1944738 33.3147734,14.1482212 C32.8352559,14.0325898 32.3167268,13.9805557 31.8209544,14.0065728 C31.2081473,14.0383714 30.514066,14.2306086 30.0703091,14.629537 C29.8508689,14.8275557 30.1954713,15.133979 30.4149115,14.9359602 L30.4149115,14.9359602 Z" id="Path" fill="#003459"></path>
                    <path d="M41.4230426,14.9361472 C41.431146,14.9280113 41.44087,14.9215025 41.450594,14.9133665 C41.3954912,14.958928 41.4732834,14.8970945 41.4992141,14.8808226 C41.593213,14.8173619 41.6936946,14.7604101 41.7957969,14.7115942 C42.1539651,14.5407387 42.5558914,14.4740236 42.9497144,14.4902956 C43.5072251,14.5114491 44.1717001,14.6204712 44.6416946,14.9215025 C44.9058639,15.0907308 45.1505852,14.6676599 44.8864159,14.5000588 C44.3240431,14.1404485 43.5396385,14.0119 42.8881289,14.0005096 C42.2641707,13.9891193 41.5559376,14.1681108 41.0778398,14.5928089 C40.8444632,14.7994628 41.1880454,15.1428011 41.4230426,14.9361472 L41.4230426,14.9361472 Z" id="Path" fill="#003459"></path>
                </g>
            </g>
        </g>
    </g>
</svg>