<?xml version="1.0" encoding="UTF-8"?>
<svg width="44px" height="44px" viewBox="0 0 44 44" version="1.1" xmlns="http://www.w3.org/2000/svg" xmlns:xlink="http://www.w3.org/1999/xlink">
    <title>Budget Active</title>
    <defs>
        <rect id="path-1" x="0" y="0" width="44" height="44"></rect>
    </defs>
    <g id="Budget-Active" stroke="none" stroke-width="1" fill="none" fill-rule="evenodd">
        <g>
            <mask id="mask-2" fill="white">
                <use xlink:href="#path-1"></use>
            </mask>
            <g id="Bound-44x44"></g>
            <g id="Icon" mask="url(#mask-2)" stroke="#FFFFFF" stroke-width="2">
                <g transform="translate(5.000000, 6.000000)">
                    <path d="M29,7 L5,7 L5,17 C5,17.2761424 5.11192881,17.5261424 5.29289322,17.7071068 C5.47385763,17.8880712 5.72385763,18 6,18 L28,18 C28.2761424,18 28.5261424,17.8880712 28.7071068,17.7071068 C28.8880712,17.5261424 29,17.2761424 29,17 L29,7 Z M28,1 L6,1 C5.72385763,1 5.47385763,1.11192881 5.29289322,1.29289322 C5.11192881,1.47385763 5,1.72385763 5,2 L5,3 L29,3 L29,2 C29,1.72385763 28.8880712,1.47385763 28.7071068,1.29289322 C28.5261424,1.11192881 28.2761424,1 28,1 Z" id="Budget"></path>
                    <rect id="Rectangle" x="9" y="11" width="3" height="1" rx="0.5"></rect>
                </g>
            </g>
        </g>
    </g>
</svg>