<?xml version="1.0" encoding="UTF-8"?>
<svg width="64px" height="50px" viewBox="0 0 64 50" version="1.1" xmlns="http://www.w3.org/2000/svg" xmlns:xlink="http://www.w3.org/1999/xlink">
    <title>Cloud3</title>
    <defs>
        <filter x="-26.1%" y="-37.5%" width="152.2%" height="175.0%" filterUnits="objectBoundingBox" id="filter-1">
            <feOffset dx="0" dy="2" in="SourceAlpha" result="shadowOffsetOuter1"></feOffset>
            <feGaussianBlur stdDeviation="2" in="shadowOffsetOuter1" result="shadowBlurOuter1"></feGaussianBlur>
            <feColorMatrix values="0 0 0 0 0   0 0 0 0 0   0 0 0 0 0  0 0 0 0.5 0" type="matrix" in="shadowBlurOuter1" result="shadowMatrixOuter1"></feColorMatrix>
            <feMerge>
                <feMergeNode in="shadowMatrixOuter1"></feMergeNode>
                <feMergeNode in="SourceGraphic"></feMergeNode>
            </feMerge>
        </filter>
    </defs>
    <g id="Page-1" stroke="none" stroke-width="1" fill="none" fill-rule="evenodd">
        <g id="Home/content&gt;min.marg.16px" transform="translate(-247.000000, -170.000000)" fill-rule="nonzero">
            <g id="Brand-Image" transform="translate(-1.000000, -53.000000)">
                <g id="Cloud3" filter="url(#filter-1)" transform="translate(280.000000, 248.000000) scale(-1, 1) translate(-280.000000, -248.000000) translate(257.000000, 232.000000)">
                    <path d="M45.9573155,14.0011843 C46.5588466,20.8993438 40.6036888,22.6541388 40.6036888,22.6541388 C40.6036888,22.6541388 40.2331457,26.5183183 35.8515932,28.2815847 C31.6408755,29.9758695 27.7309234,28.2210745 27.7309234,28.2210745 C27.7309234,28.2210745 23.3397465,32.8803577 16.3018327,31.8516848 C9.26391889,30.8230119 7.88039737,25.3165863 7.88039737,25.3165863 C7.88039737,25.3165863 -0.0598130483,25.195566 0,17.0266928 C0.0604931703,8.85781973 8.7225409,8.73679939 8.7225409,8.73679939 C8.7225409,8.73679939 8.6623878,5.771801 12.0309619,3.95649586 C15.399536,2.14119073 18.106426,3.65394501 18.106426,3.65394501 C18.106426,3.65394501 20.7531628,-0.339726292 27.7309234,0.0233347352 C34.7086841,0.386395762 36.5132774,5.95333151 36.5132774,5.95333151 C36.5132774,5.95333151 45.269164,6.10460694 45.9573155,14.0011843 Z" id="Path" fill="#FFFFFF"></path>
                    <circle id="Oval" fill="#003459" cx="34.5" cy="13.5" r="1.5"></circle>
                    <circle id="Oval" fill="#FFFFFF" cx="35" cy="14" r="1"></circle>
                    <circle id="Oval" fill="#003459" cx="25.5" cy="13.5" r="1.5"></circle>
                    <circle id="Oval" fill="#FFFFFF" cx="26" cy="14" r="1"></circle>
                    <path d="M28,18 C28,18 28.948588,19 30.5862901,19 C32.2239923,19 33,18 33,18 C33,18 32.3108858,18.5005834 30.5862901,18.5005834 C28.8616944,18.4994166 28,18 28,18 Z" id="Path" fill="#003459"></path>
                    <path d="M24.3111837,11.9359602 C24.3940833,11.8362281 24.4586963,11.7899755 24.5781693,11.7104789 C24.8317446,11.541368 25.1194551,11.4503083 25.4096039,11.4372998 C25.7375451,11.4228458 26.0715819,11.4633168 26.3897702,11.5659397 C26.4836418,11.5962929 26.5762944,11.6309824 26.6652896,11.6743441 C26.6299353,11.6569994 26.7067394,11.6974704 26.7250261,11.7090336 C26.9322752,11.8420097 27.1163611,11.467653 26.909112,11.3346769 C26.778667,11.2508441 26.6299353,11.1944738 26.4860801,11.1482212 C26.1264419,11.0325898 25.7375451,10.9805557 25.3657158,11.0065728 C24.9061105,11.0383714 24.3855495,11.2306086 24.0527318,11.629537 C23.8881517,11.8275557 24.1466035,12.133979 24.3111837,11.9359602 L24.3111837,11.9359602 Z" id="Path" fill="#003459"></path>
                    <path d="M33.317282,11.9361472 C33.3233595,11.9280113 33.3306525,11.9215025 33.3379455,11.9133665 C33.2966184,11.958928 33.3549625,11.8970945 33.3744106,11.8808226 C33.4449098,11.8173619 33.520271,11.7604101 33.5968476,11.7115942 C33.8654738,11.5407387 34.1669186,11.4740236 34.4622858,11.4902956 C34.8804188,11.5114491 35.3787751,11.6204712 35.7312709,11.9215025 C35.9293979,12.0907308 36.1129389,11.6676599 35.9148119,11.5000588 C35.4930323,11.1404485 34.9047289,11.0119 34.4160967,11.0005096 C33.948128,10.9891193 33.4169532,11.1681108 33.0583798,11.5928089 C32.8833474,11.7994628 33.141034,12.1428011 33.317282,11.9361472 L33.317282,11.9361472 Z" id="Path" fill="#003459"></path>
                </g>
            </g>
        </g>
    </g>
</svg>