<?xml version="1.0" encoding="UTF-8"?>
<svg width="59px" height="47px" viewBox="0 0 59 47" version="1.1" xmlns="http://www.w3.org/2000/svg" xmlns:xlink="http://www.w3.org/1999/xlink">
    <title>Cloud2</title>
    <defs>
        <filter x="-29.3%" y="-41.4%" width="158.5%" height="182.8%" filterUnits="objectBoundingBox" id="filter-1">
            <feOffset dx="0" dy="2" in="SourceAlpha" result="shadowOffsetOuter1"></feOffset>
            <feGaussianBlur stdDeviation="2" in="shadowOffsetOuter1" result="shadowBlurOuter1"></feGaussianBlur>
            <feColorMatrix values="0 0 0 0 0   0 0 0 0 0   0 0 0 0 0  0 0 0 0.5 0" type="matrix" in="shadowBlurOuter1" result="shadowMatrixOuter1"></feColorMatrix>
            <feMerge>
                <feMergeNode in="shadowMatrixOuter1"></feMergeNode>
                <feMergeNode in="SourceGraphic"></feMergeNode>
            </feMerge>
        </filter>
    </defs>
    <g id="Page-1" stroke="none" stroke-width="1" fill="none" fill-rule="evenodd">
        <g id="Home/content&gt;min.marg.16px" transform="translate(-180.000000, -88.000000)" fill-rule="nonzero">
            <g id="Brand-Image" transform="translate(-1.000000, -53.000000)">
                <g id="Cloud2" filter="url(#filter-1)" transform="translate(210.500000, 164.500000) scale(-1, 1) translate(-210.500000, -164.500000) translate(190.000000, 150.000000)">
                    <path d="M40.9619552,12.6885733 C41.4981024,18.9400303 36.1902444,20.5303133 36.1902444,20.5303133 C36.1902444,20.5303133 35.8599777,24.032226 31.9546809,25.6301861 C28.2016499,27.1656317 24.7166926,25.5753488 24.7166926,25.5753488 C24.7166926,25.5753488 20.8028175,29.7978242 14.5298943,28.8655893 C8.25697118,27.9333545 7.02383244,22.9431563 7.02383244,22.9431563 C7.02383244,22.9431563 -0.05331163,22.8334817 0,15.4304404 C0.0539178257,8.02739913 7.77443863,7.91772445 7.77443863,7.91772445 C7.77443863,7.91772445 7.7208239,5.23069466 10.7232487,3.58557438 C13.7256734,1.9404541 16.1383362,3.31138766 16.1383362,3.31138766 C16.1383362,3.31138766 18.4973842,-0.307876952 24.7166926,0.0211471038 C30.9360011,0.35017116 32.5444429,5.39520668 32.5444429,5.39520668 C32.5444429,5.39520668 40.3486027,5.53230004 40.9619552,12.6885733 Z" id="Path" fill="#FFFFFF"></path>
                    <circle id="Oval" fill="#003459" cx="31.5" cy="12.5" r="1.5"></circle>
                    <circle id="Oval" fill="#FFFFFF" cx="31.5" cy="13.5" r="1"></circle>
                    <circle id="Oval" fill="#003459" cx="23.5" cy="12.5" r="1.5"></circle>
                    <circle id="Oval" fill="#FFFFFF" cx="23.5" cy="13.5" r="1"></circle>
                    <path d="M25,17 C25,17 25.948588,18 27.5862901,18 C29.2239923,18 30,17 30,17 C30,17 29.3108858,17.5005834 27.5862901,17.5005834 C25.8616944,17.4994166 25,17 25,17 Z" id="Path" fill="#003459"></path>
                    <path d="M22.3111837,10.9359602 C22.3940833,10.8362281 22.4586963,10.7899755 22.5781693,10.7104789 C22.8317446,10.541368 23.1194551,10.4503083 23.4096039,10.4372998 C23.7375451,10.4228458 24.0715819,10.4633168 24.3897702,10.5659397 C24.4836418,10.5962929 24.5762944,10.6309824 24.6652896,10.6743441 C24.6299353,10.6569994 24.7067394,10.6974704 24.7250261,10.7090336 C24.9322752,10.8420097 25.1163611,10.467653 24.909112,10.3346769 C24.778667,10.2508441 24.6299353,10.1944738 24.4860801,10.1482212 C24.1264419,10.0325898 23.7375451,9.98055572 23.3657158,10.0065728 C22.9061105,10.0383714 22.3855495,10.2306086 22.0527318,10.629537 C21.8881517,10.8275557 22.1466035,11.133979 22.3111837,10.9359602 L22.3111837,10.9359602 Z" id="Path" fill="#003459"></path>
                    <path d="M30.317282,10.9361472 C30.3233595,10.9280113 30.3306525,10.9215025 30.3379455,10.9133665 C30.2966184,10.958928 30.3549625,10.8970945 30.3744106,10.8808226 C30.4449098,10.8173619 30.520271,10.7604101 30.5968476,10.7115942 C30.8654738,10.5407387 31.1669186,10.4740236 31.4622858,10.4902956 C31.8804188,10.5114491 32.3787751,10.6204712 32.7312709,10.9215025 C32.9293979,11.0907308 33.1129389,10.6676599 32.9148119,10.5000588 C32.4930323,10.1404485 31.9047289,10.0119 31.4160967,10.0005096 C30.948128,9.98911926 30.4169532,10.1681108 30.0583798,10.5928089 C29.8833474,10.7994628 30.141034,11.1428011 30.317282,10.9361472 L30.317282,10.9361472 Z" id="Path" fill="#003459"></path>
                </g>
            </g>
        </g>
    </g>
</svg>