<?xml version="1.0" encoding="UTF-8"?>
<svg width="361px" height="270px" viewBox="0 0 361 270" version="1.1" xmlns="http://www.w3.org/2000/svg" xmlns:xlink="http://www.w3.org/1999/xlink">
    <title>Illustration Bot</title>
    <g id="Page-1" stroke="none" stroke-width="1" fill="none" fill-rule="evenodd">
        <g id="MyWallet/content&gt;min.marg.16px" transform="translate(0.000000, -474.000000)">
            <g id="Body" transform="translate(0.000000, -100.000000)">
                <g id="Illustration-Bot" transform="translate(180.500000, 709.000000) scale(1, -1) translate(-180.500000, -709.000000) translate(0.000000, 574.000000)">
                    <path d="M0,0 L359.947644,0 C360.163379,179.816209 360.180831,269.652993 360,269.510352 C333.179688,248.354204 277.5,242.721245 226,255.580427 C174.5,268.43961 120.587765,280.281884 91,255.580427 C70.2300065,238.24052 41.660972,242.191735 18,247.877938 C10.8046875,249.607115 4.8046875,248.011566 0,243.091293 L0,0 Z" id="Underblue" fill="#1FB36F" transform="translate(180.061843, 135.000000) scale(-1, 1) translate(-180.061843, -135.000000) "></path>
                    <path d="M0.123686306,0.193825203 L360.123686,0.193825203 L360.123686,199.866922 C359.45702,223.226136 346.123686,231.560784 320.123686,224.870866 C252.989655,207.596975 183.126548,266.756288 107.525435,224.870866 C71.0271337,204.649647 35.2265509,198.386954 0.123686306,206.082788 L0.123686306,0.193825203 Z" id="Blue" fill="#003459"></path>
                </g>
            </g>
        </g>
    </g>
</svg>