<?xml version="1.0" encoding="UTF-8"?>
<svg width="361px" height="289px" viewBox="0 0 361 289" version="1.1" xmlns="http://www.w3.org/2000/svg" xmlns:xlink="http://www.w3.org/1999/xlink">
    <title>Illustration Top</title>
    <g id="Page-1" stroke="none" stroke-width="1" fill="none" fill-rule="evenodd">
        <g id="MyWallet/content&gt;min.marg.16px" transform="translate(0.000000, -70.000000)">
            <g id="Body" transform="translate(0.000000, 70.000000)">
                <g id="Illustration-Top" transform="translate(0.000000, 0.220335)">
                    <path d="M-5.68434189e-14,2.84217094e-14 L359.947644,2.84217094e-14 C360.163379,191.816209 360.180831,287.652993 360,287.510352 C333.179688,266.354204 277.5,260.721245 226,273.580427 C174.5,286.43961 120.587765,298.281884 91,273.580427 C70.2300065,256.24052 41.660972,260.191735 18,265.877938 C10.8046875,267.607115 4.8046875,266.011566 -5.68434189e-14,261.091293 L-5.68434189e-14,2.84217094e-14 Z" id="Underblue" fill="#1FB36F" transform="translate(180.061843, 144.000000) scale(-1, 1) translate(-180.061843, -144.000000) "></path>
                    <path d="M0.123686306,0.193825203 L360.123686,0.193825203 L360.123686,217.866922 C359.45702,241.226136 346.123686,249.560784 320.123686,242.870866 C252.989655,225.596975 183.126548,284.756288 107.525435,242.870866 C71.0271337,222.649647 35.2265509,216.386954 0.123686306,224.082788 L0.123686306,0.193825203 Z" id="Blue" fill="#003459"></path>
                </g>
            </g>
        </g>
    </g>
</svg>