<?xml version="1.0" encoding="UTF-8"?>
<svg width="44px" height="44px" viewBox="0 0 44 44" version="1.1" xmlns="http://www.w3.org/2000/svg" xmlns:xlink="http://www.w3.org/1999/xlink">
    <title>like</title>
    <g id="like" stroke="none" stroke-width="1" fill="none" fill-rule="evenodd">
        <g>
            <rect id="bound" x="0" y="0" width="44" height="44"></rect>
            <path d="M22,31 C21.715271,31 21.4407654,30.895654 21.2268371,30.7061023 C20.4188843,29.9914246 19.6399231,29.3198127 18.9526672,28.7273865 L18.9491577,28.7242994 C16.9342346,26.9873083 15.1942749,25.4872569 13.9836426,24.0095873 C12.6303406,22.3576476 12,20.7913765 12,19.0803176 C12,17.4178815 12.5635071,15.88418 13.5866089,14.761534 C14.6219177,13.6256131 16.042511,13 17.5871582,13 C18.7416382,13 19.7989197,13.3692244 20.7295532,14.0973313 C21.1992187,14.4648578 21.624939,14.9146572 22,15.4393201 C22.3752136,14.9146572 22.8007812,14.4648578 23.2705994,14.0973313 C24.2012329,13.3692244 25.2585144,13 26.4129944,13 C27.957489,13 29.3782348,13.6256131 30.4135437,14.761534 C31.4366455,15.88418 32,17.4178815 32,19.0803176 C32,20.7913765 31.369812,22.3576476 30.01651,24.009433 C28.8058777,25.4872569 27.0660705,26.987154 25.0514527,28.7239907 C24.3629761,29.317343 23.5827942,29.9900353 22.7730102,30.706411 C22.5592346,30.895654 22.2845764,31 22,31 L22,31 Z" id="icon" fill="#1FB36F" fill-rule="nonzero"></path>
        </g>
    </g>
</svg>