<?xml version="1.0" encoding="UTF-8"?>
<svg width="44px" height="44px" viewBox="0 0 44 44" version="1.1" xmlns="http://www.w3.org/2000/svg" xmlns:xlink="http://www.w3.org/1999/xlink">
    <title>Home Active</title>
    <defs>
        <rect id="path-1" x="0" y="0" width="44" height="44"></rect>
    </defs>
    <g id="Page-1" stroke="none" stroke-width="1" fill="none" fill-rule="evenodd">
        <g id="Home/content&gt;min.marg.16px" transform="translate(-16.000000, -6.000000)">
            <g id="Navbar">
                <g id="Home-Active" transform="translate(16.000000, 6.000000)">
                    <mask id="mask-2" fill="white">
                        <use xlink:href="#path-1"></use>
                    </mask>
                    <g id="Bound-44x44"></g>
                    <g id="Logo-Active" mask="url(#mask-2)">
                        <g transform="translate(22.000000, 20.500000) scale(-1, 1) translate(-22.000000, -20.500000) translate(3.000000, 2.000000)">
                            <path d="M20,7 L14.2411348,7 C13.1489362,7 12.1560284,7.10179641 11.2624113,7.40718563 C10.3687943,7.71257485 9.67375887,8.22155689 8.9787234,8.73053892 C8.28368794,9.23952096 7.78723404,9.95209581 7.39007092,10.7664671 C6.9929078,11.5808383 6.79432624,12.497006 6.79432624,13.6167665 C6.79432624,14.4311377 6.89361702,15.1437126 7.09219858,15.754491 C7.29078014,16.3652695 7.58865248,16.8742515 7.88652482,17.2814371 C8.18439716,17.6886228 8.58156028,18.0958084 8.9787234,18.4011976 L6,24 L12.1560284,24 L14.6382979,19.7245509 L14.6382979,24 L19.9007092,24 L19.9007092,7 L20,7 Z M14.8846154,16 L14.6538462,16 C13.9615385,16 13.2692308,15.8888889 12.8076923,15.5555556 C12.3461538,15.2222222 12,14.6666667 12,14 C12,13.2222222 12.2307692,12.7777778 12.8076923,12.4444444 C13.2692308,12.1111111 13.9615385,12 14.6538462,12 L15,12 L15,16 L14.8846154,16 Z" id="Shape" fill="#FFFFFF" fill-rule="nonzero"></path>
                            <path d="M17.1481189,24 L14.834559,18.4 C13.1245366,14.1 14.1304321,9.2 17.0475293,6.3 C18.8581414,4.5 20.5681639,2.6 22.1775968,0.5 L22.579955,0 L23.485261,1.5 C24.5917462,3.3 25.4970522,5.3 26,7.2 L17.1481189,24 Z" id="Path" fill="#DDEBDF" fill-rule="nonzero"></path>
                            <path d="M31.4065544,5 C29.9967186,9.3 26.5191239,11.5 24.5453538,14.5 C21.0677591,19.7 19,24 19,24 L21.0677591,24 C30.2786858,24 33.0043682,15.7 31.6885215,6.8 L31.4065544,5 Z" id="Path_1_" fill="#DDEBDF" fill-rule="nonzero"></path>
                            <path d="M31,5 L30.5149254,5.3 C29.2537313,6 27.8955224,6.5 26.5373134,7 C25.761194,7.3 24.8880597,7.6 24.1119403,7.8 C20.619403,8.9 18,12.9 18,17.7 L18.2910448,24 C18.2910448,24 27.119403,16.8 31,5 Z" id="Path_2_" fill="#FFFFFF" fill-rule="nonzero"></path>
                            <text id="title" fill="none" transform="translate(19.000000, 29.500000) scale(-1, 1) translate(-19.000000, -29.500000) " font-family="Montserrat-SemiBold, Montserrat" font-size="12" font-weight="500">
                                <tspan x="0.22" y="34" fill="#FFFFFF">Home</tspan>
                            </text>
                        </g>
                    </g>
                </g>
            </g>
        </g>
    </g>
</svg>