<?xml version="1.0" encoding="UTF-8"?>
<svg width="44px" height="44px" viewBox="0 0 44 44" version="1.1" xmlns="http://www.w3.org/2000/svg" xmlns:xlink="http://www.w3.org/1999/xlink">
    <title>Budget Active</title>
    <defs>
        <rect id="path-1" x="0" y="0" width="44" height="44"></rect>
    </defs>
    <g id="Page-1" stroke="none" stroke-width="1" fill="none" fill-rule="evenodd">
        <g id="Home/content&gt;min.marg.16px" transform="translate(-158.000000, -6.000000)">
            <g id="Navbar">
                <g id="Budget-Active" transform="translate(158.000000, 6.000000)">
                    <mask id="mask-2" fill="white">
                        <use xlink:href="#path-1"></use>
                    </mask>
                    <g id="Bound-44x44"></g>
                    <g id="Icon" mask="url(#mask-2)">
                        <g transform="translate(4.000000, 6.000000)">
                            <path d="M30,7 L6,7 L6,17 C6,17.2761424 6.11192881,17.5261424 6.29289322,17.7071068 C6.47385763,17.8880712 6.72385763,18 7,18 L29,18 C29.2761424,18 29.5261424,17.8880712 29.7071068,17.7071068 C29.8880712,17.5261424 30,17.2761424 30,17 L30,7 Z M29,1 L7,1 C6.72385763,1 6.47385763,1.11192881 6.29289322,1.29289322 C6.11192881,1.47385763 6,1.72385763 6,2 L6,3 L30,3 L30,2 C30,1.72385763 29.8880712,1.47385763 29.7071068,1.29289322 C29.5261424,1.11192881 29.2761424,1 29,1 Z" id="Budget" stroke="#FFFFFF" stroke-width="2"></path>
                            <rect id="Rectangle" stroke="#FFFFFF" stroke-width="2" x="23" y="13" width="3" height="1" rx="0.5"></rect>
                            <text id="title" stroke="none" font-family="Montserrat-SemiBold, Montserrat" font-size="12" font-weight="500">
                                <tspan x="0.486" y="30" fill="#FFFFFF">1999£</tspan>
                            </text>
                        </g>
                    </g>
                </g>
            </g>
        </g>
    </g>
</svg>