<?xml version="1.0" encoding="UTF-8"?>
<svg width="361px" height="381px" viewBox="0 0 361 381" version="1.1" xmlns="http://www.w3.org/2000/svg" xmlns:xlink="http://www.w3.org/1999/xlink">
    <title>Brand Image</title>
    <defs>
        <path d="M1,0.414159939 L361,0.414159939 L361,320.087257 C360.333333,343.446471 347,351.781119 321,345.091201 C253.865969,327.81731 184.002862,386.976622 108.401748,345.091201 C71.9034474,324.869982 36.1028646,318.607289 1,326.303123 L1,0.414159939 Z" id="path-1"></path>
    </defs>
    <g id="Page-1" stroke="none" stroke-width="1" fill="none" fill-rule="evenodd">
        <g id="Home/content&gt;min.marg.16px" transform="translate(1.000000, 0.000000)">
            <g id="Brand-Image" transform="translate(-1.000000, 0.000000)">
                <path d="M0.876313694,0.220334735 L360.823958,0.220334735 C361.039693,253.369877 361.057145,379.873328 360.876314,379.730686 C334.056001,358.574539 278.376314,352.941579 226.876314,365.800762 C175.376314,378.659944 121.464079,390.502219 91.8763137,365.800762 C71.1063202,348.460855 42.5372857,352.41207 18.8763137,358.098273 C11.6810012,359.827449 5.68100119,358.231901 0.876313694,353.311628 L0.876313694,0.220334735 Z" id="undermask" fill="#1FB36F" transform="translate(180.938157, 190.220335) scale(-1, 1) translate(-180.938157, -190.220335) "></path>
                <mask id="mask-2" fill="white">
                    <use xlink:href="#path-1"></use>
                </mask>
                <use id="Mask" fill="#003459" xlink:href="#path-1"></use>
                <g id="happy-left" mask="url(#mask-2)">
                    <g transform="translate(16.000000, 257.000000)">
                        <path d="M42.0159414,9.34210526 C40.4908346,9.34210526 39.2555671,10.5701631 39.2555671,12.0863685 L39.2555671,12.7724343 C39.2555671,19.9720088 33.385631,25.8076845 26.1437889,25.8076845 L19.500948,25.8076845 C12.2591058,25.8076845 6.38916977,19.9720088 6.38916977,12.7724343 L6.38916977,12.0863685 C6.38916977,10.5701631 5.15390224,9.34210526 3.62879541,9.34210526 C2.10368858,9.34210526 0.868421053,10.5701631 0.868421053,12.0863685 L0.868421053,12.7724343 C0.868421053,21.2233928 6.5906771,28.3694542 14.3845941,30.5854468 L14.3845941,45.7763158 L30.9468403,45.7763158 L30.9468403,30.6718911 C38.900859,28.5601805 44.7763158,21.3359076 44.7763158,12.7724343 L44.7763158,12.0863685 C44.7763158,10.5701631 43.5396681,9.34210526 42.0159414,9.34210526 Z" id="Path" fill="#5DB7DE" fill-rule="nonzero"></path>
                        <rect id="Rectangle" fill="#161925" fill-rule="nonzero" x="14.8947368" y="45.7763158" width="15" height="23.3552632"></rect>
                        <g id="Group" stroke-width="1" fill="none" fill-rule="evenodd" transform="translate(16.750000, 14.013158)">
                            <path d="M5.46926295,0.0842607004 L5.46926295,0.0842607004 C2.485,0.0842607004 0.0664741036,2.44632296 0.0664741036,5.3609144 L0.0664741036,6.32093385 C0.0664741036,9.23552529 2.485,11.5975875 5.46926295,11.5975875 L5.46926295,11.5975875 C8.4535259,11.5975875 10.8720518,9.23552529 10.8720518,6.32093385 L10.8720518,5.3609144 C10.8720518,2.44632296 8.4535259,0.0842607004 5.46926295,0.0842607004 Z" id="Path" fill="#FCC69D" fill-rule="nonzero"></path>
                            <path d="M30.0604382,23.9079377 L30.0604382,23.9079377 C27.0761753,23.9079377 24.6576494,26.2713813 24.6576494,29.1845914 L24.6576494,30.1446109 C24.6576494,33.0592023 27.0775896,35.4212646 30.0604382,35.4212646 L30.0604382,35.4212646 C33.0447012,35.4212646 35.4632271,33.057821 35.4632271,30.1446109 L35.4632271,29.1845914 C35.4632271,26.27 33.0447012,23.9079377 30.0604382,23.9079377 Z" id="Path" fill="#FCC69D" fill-rule="nonzero"></path>
                        </g>
                        <path d="M65.3712046,32.6973684 C63.8460978,32.6973684 62.6108302,33.9254262 62.6108302,35.4416316 L62.6108302,36.1276974 C62.6108302,43.327272 56.7408942,49.1629477 49.499052,49.1629477 L42.8562111,49.1629477 C35.614369,49.1629477 29.7444329,43.327272 29.7444329,36.1276974 L29.7444329,35.4416316 C29.7444329,33.9254262 28.5091654,32.6973684 26.9840586,32.6973684 C25.4589517,32.6973684 24.2236842,33.9254262 24.2236842,35.4416316 L24.2236842,36.1276974 C24.2236842,44.578656 29.9459403,51.7247174 37.7398573,53.9407099 L37.7398573,69.1315789 L54.3021034,69.1315789 L54.3021034,54.0271542 C62.2561221,51.9168158 68.1315789,44.6911708 68.1315789,36.1276974 L68.1315789,35.4416316 C68.1315789,33.9254262 66.8963114,32.6973684 65.3712046,32.6973684 Z" id="Path" fill="#21897E" fill-rule="nonzero"></path>
                        <path d="M22.5,52 C21.672,52 21,52.5843478 21,53.3043478 L21,68.6956522 C21,69.4156522 21.672,70 22.5,70 C23.328,70 24,69.4156522 24,68.6956522 L24,53.3043478 C24,52.5843478 23.328,52 22.5,52 Z" id="Path" fill="#003459" fill-rule="nonzero"></path>
                        <path d="M63.9276316,15.8815789 C64.7011579,15.8815789 65.3289474,15.2363025 65.3289474,14.4412297 L65.3289474,12.6508756 C65.3289474,11.8558028 64.7011579,11.2105263 63.9276316,11.2105263 C63.1541053,11.2105263 62.5263158,11.8558028 62.5263158,12.6508756 L62.5263158,14.4412297 C62.5263158,15.2363025 63.1541053,15.8815789 63.9276316,15.8815789 Z" id="Path" fill="#FFFFFF" fill-rule="nonzero"></path>
                        <path d="M63.9276316,24.2894737 C64.7011579,24.2894737 65.3289474,23.6441972 65.3289474,22.8491244 L65.3289474,21.0587703 C65.3289474,20.2636975 64.7011579,19.6184211 63.9276316,19.6184211 C63.1541053,19.6184211 62.5263158,20.2636975 62.5263158,21.0587703 L62.5263158,22.8491244 C62.5263158,23.6441972 63.1541053,24.2894737 63.9276316,24.2894737 Z" id="Path" fill="#FFFFFF" fill-rule="nonzero"></path>
                        <path d="M66.7692966,18.6842105 L68.5596507,18.6842105 C69.3547235,18.6842105 70,18.0564211 70,17.2828947 C70,16.5093684 69.3547235,15.8815789 68.5596507,15.8815789 L66.7692966,15.8815789 C65.9742238,15.8815789 65.3289474,16.5093684 65.3289474,17.2828947 C65.3289474,18.0564211 65.9742238,18.6842105 66.7692966,18.6842105 Z" id="Path" fill="#FFFFFF" fill-rule="nonzero"></path>
                        <path d="M58.3614019,18.6842105 L60.151756,18.6842105 C60.9468288,18.6842105 61.5921053,18.0564211 61.5921053,17.2828947 C61.5921053,16.5093684 60.9468288,15.8815789 60.151756,15.8815789 L58.3614019,15.8815789 C57.5663291,15.8815789 56.9210526,16.5093684 56.9210526,17.2828947 C56.9210526,18.0564211 57.5663291,18.6842105 58.3614019,18.6842105 Z" id="Path" fill="#FFFFFF" fill-rule="nonzero"></path>
                        <path d="M29.3618421,4.67105263 C30.1353684,4.67105263 30.7631579,4.02577617 30.7631579,3.23070338 L30.7631579,1.44034925 C30.7631579,0.645276466 30.1353684,0 29.3618421,0 C28.5883158,0 27.9605263,0.645276466 27.9605263,1.44034925 L27.9605263,3.23070338 C27.9605263,4.02577617 28.5883158,4.67105263 29.3618421,4.67105263 Z" id="Path" fill="#FFFFFF" fill-rule="nonzero"></path>
                        <path d="M29.3618421,13.0789474 C30.1353684,13.0789474 30.7631579,12.4336709 30.7631579,11.6385981 L30.7631579,9.84824399 C30.7631579,9.0531712 30.1353684,8.40789474 29.3618421,8.40789474 C28.5883158,8.40789474 27.9605263,9.0531712 27.9605263,9.84824399 L27.9605263,11.6385981 C27.9605263,12.4336709 28.5883158,13.0789474 29.3618421,13.0789474 Z" id="Path" fill="#FFFFFF" fill-rule="nonzero"></path>
                        <path d="M32.2035071,7.47368421 L33.9938613,7.47368421 C34.7889341,7.47368421 35.4342105,6.84589474 35.4342105,6.07236842 C35.4342105,5.29884211 34.7889341,4.67105263 33.9938613,4.67105263 L32.2035071,4.67105263 C31.4084344,4.67105263 30.7631579,5.29884211 30.7631579,6.07236842 C30.7631579,6.84589474 31.4084344,7.47368421 32.2035071,7.47368421 Z" id="Path" fill="#FFFFFF" fill-rule="nonzero"></path>
                        <path d="M24.7298229,7.47368421 L26.5201771,7.47368421 C27.3152498,7.47368421 27.9605263,6.84589474 27.9605263,6.07236842 C27.9605263,5.29884211 27.3152498,4.67105263 26.5201771,4.67105263 L24.7298229,4.67105263 C23.9347502,4.67105263 23.2894737,5.29884211 23.2894737,6.07236842 C23.2894737,6.84589474 23.9347502,7.47368421 24.7298229,7.47368421 Z" id="Path" fill="#FFFFFF" fill-rule="nonzero"></path>
                    </g>
                </g>
                <g id="happy-right" mask="url(#mask-2)">
                    <g transform="translate(310.500000, 310.500000) scale(-1, 1) translate(-310.500000, -310.500000) translate(276.000000, 275.000000)">
                        <path d="M41.2338352,9 C39.7055292,9 38.4676704,10.2471284 38.4676704,11.7868791 L38.4676704,12.4835988 C38.4676704,19.7949761 32.5854211,25.7212744 25.3283878,25.7212744 L18.6716122,25.7212744 C11.4145789,25.7212744 5.53232955,19.7949761 5.53232955,12.4835988 L5.53232955,11.7868791 C5.53232955,10.2471284 4.29447081,9 2.76616478,9 C1.23785874,9 0,10.2471284 0,11.7868791 L0,12.4835988 C0,21.0657929 5.73425958,28.322826 13.5445258,30.5732309 L13.5445258,46 L30.1415145,46 L30.1415145,30.6610176 C38.1122183,28.5165141 44,21.180055 44,12.4835988 L44,11.7868791 C44,10.2471284 42.7607582,9 41.2338352,9 Z" id="Path" fill="#1FB36F" fill-rule="nonzero"></path>
                        <rect id="Rectangle" fill="#161925" fill-rule="nonzero" x="15" y="46" width="14" height="24"></rect>
                        <g id="Group" stroke-width="1" fill="none" fill-rule="evenodd" transform="translate(16.000000, 14.000000)">
                            <path d="M5.39223108,0.0854474708 L5.39223108,0.0854474708 C2.45,0.0854474708 0.0655378486,2.48077821 0.0655378486,5.43642023 L0.0655378486,6.40996109 C0.0655378486,9.36560311 2.45,11.7609339 5.39223108,11.7609339 L5.39223108,11.7609339 C8.33446215,11.7609339 10.7189243,9.36560311 10.7189243,6.40996109 L10.7189243,5.43642023 C10.7189243,2.48077821 8.33446215,0.0854474708 5.39223108,0.0854474708 Z" id="Path" fill="#FCC69D" fill-rule="nonzero"></path>
                            <path d="M29.6370518,24.2446693 L29.6370518,24.2446693 C26.6948207,24.2446693 24.3103586,26.6414008 24.3103586,29.595642 L24.3103586,30.5691829 C24.3103586,33.5248249 26.6962151,35.9201556 29.6370518,35.9201556 L29.6370518,35.9201556 C32.5792829,35.9201556 34.963745,33.5234241 34.963745,30.5691829 L34.963745,29.595642 C34.963745,26.64 32.5792829,24.2446693 29.6370518,24.2446693 Z" id="Path" fill="#FCC69D" fill-rule="nonzero"></path>
                        </g>
                        <path d="M64.2338352,33 C62.7055292,33 61.4676704,34.2471284 61.4676704,35.7868791 L61.4676704,36.4835988 C61.4676704,43.7949761 55.5854211,49.7212744 48.3283878,49.7212744 L41.6716122,49.7212744 C34.4145789,49.7212744 28.5323296,43.7949761 28.5323296,36.4835988 L28.5323296,35.7868791 C28.5323296,34.2471284 27.2944708,33 25.7661648,33 C24.2378587,33 23,34.2471284 23,35.7868791 L23,36.4835988 C23,45.0657929 28.7342596,52.322826 36.5445258,54.5732309 L36.5445258,70 L53.1415145,70 L53.1415145,54.6610176 C61.1122183,52.5179076 67,45.180055 67,36.4835988 L67,35.7868791 C67,34.2471284 65.7621413,33 64.2338352,33 Z" id="Path" fill="#5DB7DE" fill-rule="nonzero"></path>
                        <path d="M21.5,52 C20.672,52 20,52.6168116 20,53.3768116 L20,69.6231884 C20,70.3831884 20.672,71 21.5,71 C22.328,71 23,70.3831884 23,69.6231884 L23,53.3768116 C23,52.6168116 22.328,52 21.5,52 Z" id="Path" fill="#003459" fill-rule="nonzero"></path>
                        <path d="M62.5,16 C63.328,16 64,15.3092815 64,14.4582177 L64,12.5417823 C64,11.6907185 63.328,11 62.5,11 C61.672,11 61,11.6907185 61,12.5417823 L61,14.4582177 C61,15.3092815 61.672,16 62.5,16 Z" id="Path" fill="#FFFFFF" fill-rule="nonzero"></path>
                        <path d="M62.5,25 C63.328,25 64,24.3092815 64,23.4582177 L64,21.5417823 C64,20.6907185 63.328,20 62.5,20 C61.672,20 61,20.6907185 61,21.5417823 L61,23.4582177 C61,24.3092815 61.672,25 62.5,25 Z" id="Path" fill="#FFFFFF" fill-rule="nonzero"></path>
                        <path d="M65.5417823,19 L67.4582177,19 C68.3092815,19 69,18.328 69,17.5 C69,16.672 68.3092815,16 67.4582177,16 L65.5417823,16 C64.6907185,16 64,16.672 64,17.5 C64,18.328 64.6907185,19 65.5417823,19 Z" id="Path" fill="#FFFFFF" fill-rule="nonzero"></path>
                        <path d="M57.5417823,19 L59.4582177,19 C60.3092815,19 61,18.328 61,17.5 C61,16.672 60.3092815,16 59.4582177,16 L57.5417823,16 C56.6907185,16 56,16.672 56,17.5 C56,18.328 56.6907185,19 57.5417823,19 Z" id="Path" fill="#FFFFFF" fill-rule="nonzero"></path>
                        <path d="M28.5,5 C29.328,5 30,4.30928153 30,3.4582177 L30,1.5417823 C30,0.690718471 29.328,0 28.5,0 C27.672,0 27,0.690718471 27,1.5417823 L27,3.4582177 C27,4.30928153 27.672,5 28.5,5 Z" id="Path" fill="#FFFFFF" fill-rule="nonzero"></path>
                        <path d="M28.5,13 C29.328,13 30,12.3092815 30,11.4582177 L30,9.5417823 C30,8.69071847 29.328,8 28.5,8 C27.672,8 27,8.69071847 27,9.5417823 L27,11.4582177 C27,12.3092815 27.672,13 28.5,13 Z" id="Path" fill="#FFFFFF" fill-rule="nonzero"></path>
                        <path d="M31.5417823,8 L33.4582177,8 C34.3092815,8 35,7.328 35,6.5 C35,5.672 34.3092815,5 33.4582177,5 L31.5417823,5 C30.6907185,5 30,5.672 30,6.5 C30,7.328 30.6907185,8 31.5417823,8 Z" id="Path" fill="#FFFFFF" fill-rule="nonzero"></path>
                        <path d="M23.5417823,8 L25.4582177,8 C26.3092815,8 27,7.328 27,6.5 C27,5.672 26.3092815,5 25.4582177,5 L23.5417823,5 C22.6907185,5 22,5.672 22,6.5 C22,7.328 22.6907185,8 23.5417823,8 Z" id="Path" fill="#FFFFFF" fill-rule="nonzero"></path>
                    </g>
                </g>
            </g>
        </g>
    </g>
</svg>