<?xml version="1.0" encoding="UTF-8"?>
<svg width="328px" height="186px" viewBox="0 0 328 186" version="1.1" xmlns="http://www.w3.org/2000/svg" xmlns:xlink="http://www.w3.org/1999/xlink">
    <title>Card</title>
    <defs>
        <rect id="path-1" x="0" y="0" width="328" height="186" rx="16"></rect>
        <radialGradient cx="1615.78877%" cy="3340.26086%" fx="1615.78877%" fy="3340.26086%" r="4473.11861%" gradientTransform="translate(16.157888,33.402609),scale(0.651148,1.000000),translate(-16.157888,-33.402609)" id="radialGradient-3">
            <stop stop-color="#B3B3B3" offset="0%"></stop>
            <stop stop-color="#003459" offset="100%"></stop>
        </radialGradient>
        <radialGradient cx="58.1434283%" cy="318.636077%" fx="58.1434283%" fy="318.636077%" r="329.627863%" gradientTransform="translate(0.581434,3.186361),scale(0.721845,1.000000),translate(-0.581434,-3.186361)" id="radialGradient-4">
            <stop stop-color="#B3B3B3" offset="0%"></stop>
            <stop stop-color="#003459" offset="100%"></stop>
        </radialGradient>
        <radialGradient cx="1870.03479%" cy="3312.82325%" fx="1870.03479%" fy="3312.82325%" r="5061.62181%" gradientTransform="translate(18.700348,33.128232),scale(1.000000,0.865191),translate(-18.700348,-33.128232)" id="radialGradient-5">
            <stop stop-color="#B3B3B3" offset="0%"></stop>
            <stop stop-color="#003459" offset="100%"></stop>
        </radialGradient>
        <radialGradient cx="196.686833%" cy="489.562976%" fx="196.686833%" fy="489.562976%" r="583.515832%" gradientTransform="translate(1.966868,4.895630),scale(0.746410,1.000000),translate(-1.966868,-4.895630)" id="radialGradient-6">
            <stop stop-color="#B3B3B3" offset="0%"></stop>
            <stop stop-color="#003459" offset="100%"></stop>
        </radialGradient>
        <radialGradient cx="-70.1148119%" cy="50.0057775%" fx="-70.1148119%" fy="50.0057775%" r="168.16492%" gradientTransform="translate(-0.701148,0.500058),scale(1.000000,0.364989),translate(0.701148,-0.500058)" id="radialGradient-7">
            <stop stop-color="#B3B3B3" offset="0%"></stop>
            <stop stop-color="#003459" offset="100%"></stop>
        </radialGradient>
        <radialGradient cx="-716.676885%" cy="788.6867%" fx="-716.676885%" fy="788.6867%" r="1737.08377%" gradientTransform="translate(-7.166769,7.886867),scale(1.000000,0.760345),translate(7.166769,-7.886867)" id="radialGradient-8">
            <stop stop-color="#B3B3B3" offset="0%"></stop>
            <stop stop-color="#003459" offset="100%"></stop>
        </radialGradient>
        <radialGradient cx="-2945.17073%" cy="675.57667%" fx="-2945.17073%" fy="675.57667%" r="4081.98634%" gradientTransform="translate(-29.451707,6.755767),scale(1.000000,0.568823),translate(29.451707,-6.755767)" id="radialGradient-9">
            <stop stop-color="#B3B3B3" offset="0%"></stop>
            <stop stop-color="#003459" offset="100%"></stop>
        </radialGradient>
        <radialGradient cx="-3293.5216%" cy="2717.57012%" fx="-3293.5216%" fy="2717.57012%" r="9868.17127%" gradientTransform="translate(-32.935216,27.175701),scale(0.509317,1.000000),translate(32.935216,-27.175701)" id="radialGradient-10">
            <stop stop-color="#B3B3B3" offset="0%"></stop>
            <stop stop-color="#003459" offset="100%"></stop>
        </radialGradient>
        <radialGradient cx="-6463.65562%" cy="941.294751%" fx="-6463.65562%" fy="941.294751%" r="8955.81543%" gradientTransform="translate(-64.636556,9.412948),scale(1.000000,0.315029),translate(64.636556,-9.412948)" id="radialGradient-11">
            <stop stop-color="#B3B3B3" offset="0%"></stop>
            <stop stop-color="#003459" offset="100%"></stop>
        </radialGradient>
        <radialGradient cx="724.387216%" cy="1149.40417%" fx="724.387216%" fy="1149.40417%" r="1456.65183%" gradientTransform="translate(7.243872,11.494042),scale(0.758915,1.000000),translate(-7.243872,-11.494042)" id="radialGradient-12">
            <stop stop-color="#B3B3B3" offset="0%"></stop>
            <stop stop-color="#003459" offset="100%"></stop>
        </radialGradient>
        <radialGradient cx="522.786473%" cy="792.205689%" fx="522.786473%" fy="792.205689%" r="1001.71575%" gradientTransform="translate(5.227865,7.922057),scale(0.793320,1.000000),translate(-5.227865,-7.922057)" id="radialGradient-13">
            <stop stop-color="#B3B3B3" offset="0%"></stop>
            <stop stop-color="#003459" offset="100%"></stop>
        </radialGradient>
        <radialGradient cx="2913.62552%" cy="4845.3329%" fx="2913.62552%" fy="4845.3329%" r="7420.78518%" gradientTransform="translate(29.136255,48.453329),scale(0.896841,1.000000),translate(-29.136255,-48.453329)" id="radialGradient-14">
            <stop stop-color="#B3B3B3" offset="0%"></stop>
            <stop stop-color="#003459" offset="100%"></stop>
        </radialGradient>
        <radialGradient cx="825.74509%" cy="1479.5391%" fx="825.74509%" fy="1479.5391%" r="2113.8989%" gradientTransform="translate(8.257451,14.795391),scale(0.790293,1.000000),translate(-8.257451,-14.795391)" id="radialGradient-15">
            <stop stop-color="#B3B3B3" offset="0%"></stop>
            <stop stop-color="#003459" offset="100%"></stop>
        </radialGradient>
        <radialGradient cx="1854.58241%" cy="4010.01283%" fx="1854.58241%" fy="4010.01283%" r="6098.3471%" gradientTransform="translate(18.545824,40.100128),scale(0.639540,1.000000),translate(-18.545824,-40.100128)" id="radialGradient-16">
            <stop stop-color="#B3B3B3" offset="0%"></stop>
            <stop stop-color="#003459" offset="100%"></stop>
        </radialGradient>
        <radialGradient cx="2471.5913%" cy="-1058.58562%" fx="2471.5913%" fy="-1058.58562%" r="7490.59328%" gradientTransform="translate(24.715913,-10.585856),scale(0.668203,1.000000),translate(-24.715913,10.585856)" id="radialGradient-17">
            <stop stop-color="#B3B3B3" offset="0%"></stop>
            <stop stop-color="#003459" offset="100%"></stop>
        </radialGradient>
        <radialGradient cx="-6998.84556%" cy="11790.59%" fx="-6998.84556%" fy="11790.59%" r="20985.3487%" gradientTransform="translate(-69.988456,117.905900),scale(0.678710,1.000000),translate(69.988456,-117.905900)" id="radialGradient-18">
            <stop stop-color="#B3B3B3" offset="0%"></stop>
            <stop stop-color="#003459" offset="100%"></stop>
        </radialGradient>
        <radialGradient cx="224.322833%" cy="537.884034%" fx="224.322833%" fy="537.884034%" r="1064.02697%" gradientTransform="translate(2.243228,5.378840),scale(0.954335,1.000000),translate(-2.243228,-5.378840)" id="radialGradient-19">
            <stop stop-color="#B3B3B3" offset="0%"></stop>
            <stop stop-color="#003459" offset="100%"></stop>
        </radialGradient>
        <radialGradient cx="-280.403002%" cy="397.582889%" fx="-280.403002%" fy="397.582889%" r="638.498565%" gradientTransform="translate(-2.804030,3.975829),scale(1.000000,0.952837),translate(2.804030,-3.975829)" id="radialGradient-20">
            <stop stop-color="#B3B3B3" offset="0%"></stop>
            <stop stop-color="#003459" offset="100%"></stop>
        </radialGradient>
        <radialGradient cx="7222.23293%" cy="1096.91535%" fx="7222.23293%" fy="1096.91535%" r="7866.15639%" gradientTransform="translate(72.222329,10.969154),scale(1.000000,0.356777),translate(-72.222329,-10.969154)" id="radialGradient-21">
            <stop stop-color="#B3B3B3" offset="0%"></stop>
            <stop stop-color="#003459" offset="100%"></stop>
        </radialGradient>
        <radialGradient cx="-119.749586%" cy="1533.55753%" fx="-119.749586%" fy="1533.55753%" r="1966.58312%" gradientTransform="translate(-1.197496,15.335575),scale(0.357498,1.000000),translate(1.197496,-15.335575)" id="radialGradient-22">
            <stop stop-color="#B3B3B3" offset="0%"></stop>
            <stop stop-color="#003459" offset="100%"></stop>
        </radialGradient>
        <radialGradient cx="466.610802%" cy="-88.0548147%" fx="466.610802%" fy="-88.0548147%" r="1491.45514%" gradientTransform="translate(4.666108,-0.880548),scale(0.570850,1.000000),translate(-4.666108,0.880548)" id="radialGradient-23">
            <stop stop-color="#B3B3B3" offset="0%"></stop>
            <stop stop-color="#003459" offset="100%"></stop>
        </radialGradient>
        <radialGradient cx="469.022717%" cy="-326.215541%" fx="469.022717%" fy="-326.215541%" r="2481.04344%" gradientTransform="translate(4.690227,-3.262155),scale(0.426954,1.000000),translate(-4.690227,3.262155)" id="radialGradient-24">
            <stop stop-color="#B3B3B3" offset="0%"></stop>
            <stop stop-color="#003459" offset="100%"></stop>
        </radialGradient>
        <radialGradient cx="803.971328%" cy="3448.9074%" fx="803.971328%" fy="3448.9074%" r="7497.19052%" gradientTransform="translate(8.039713,34.489074),scale(0.380509,1.000000),translate(-8.039713,-34.489074)" id="radialGradient-25">
            <stop stop-color="#B3B3B3" offset="0%"></stop>
            <stop stop-color="#003459" offset="100%"></stop>
        </radialGradient>
        <radialGradient cx="-475.056891%" cy="-411.448753%" fx="-475.056891%" fy="-411.448753%" r="708.674568%" gradientTransform="translate(-4.750569,-4.114488),scale(1.000000,0.953524),translate(4.750569,4.114488)" id="radialGradient-26">
            <stop stop-color="#B3B3B3" offset="0%"></stop>
            <stop stop-color="#003459" offset="100%"></stop>
        </radialGradient>
        <radialGradient cx="84.8868863%" cy="45.9792664%" fx="84.8868863%" fy="45.9792664%" r="90.3932085%" gradientTransform="translate(0.848869,0.459793),scale(1.000000,0.611396),translate(-0.848869,-0.459793)" id="radialGradient-27">
            <stop stop-color="#B3B3B3" offset="0%"></stop>
            <stop stop-color="#003459" offset="100%"></stop>
        </radialGradient>
        <radialGradient cx="1077.65216%" cy="-1362.23663%" fx="1077.65216%" fy="-1362.23663%" r="8157.36732%" gradientTransform="translate(10.776522,-13.622366),scale(0.401835,1.000000),translate(-10.776522,13.622366)" id="radialGradient-28">
            <stop stop-color="#B3B3B3" offset="0%"></stop>
            <stop stop-color="#003459" offset="100%"></stop>
        </radialGradient>
        <filter x="-50.0%" y="-50.0%" width="200.0%" height="200.0%" filterUnits="objectBoundingBox" id="filter-29">
            <feGaussianBlur stdDeviation="1" in="SourceGraphic"></feGaussianBlur>
        </filter>
        <filter x="0.0%" y="0.0%" width="100.0%" height="100.0%" filterUnits="objectBoundingBox" id="filter-30">
            <feGaussianBlur stdDeviation="0" in="SourceGraphic"></feGaussianBlur>
        </filter>
        <filter x="-50.0%" y="-50.0%" width="200.0%" height="200.0%" filterUnits="objectBoundingBox" id="filter-31">
            <feGaussianBlur stdDeviation="1" in="SourceGraphic"></feGaussianBlur>
        </filter>
        <filter x="0.0%" y="0.0%" width="100.0%" height="100.0%" filterUnits="objectBoundingBox" id="filter-32">
            <feGaussianBlur stdDeviation="0" in="SourceGraphic"></feGaussianBlur>
        </filter>
        <filter x="-50.0%" y="-50.0%" width="200.0%" height="200.0%" filterUnits="objectBoundingBox" id="filter-33">
            <feGaussianBlur stdDeviation="1" in="SourceGraphic"></feGaussianBlur>
        </filter>
        <filter x="0.0%" y="0.0%" width="100.0%" height="100.0%" filterUnits="objectBoundingBox" id="filter-34">
            <feGaussianBlur stdDeviation="0" in="SourceGraphic"></feGaussianBlur>
        </filter>
        <filter x="-50.0%" y="-50.0%" width="200.0%" height="200.0%" filterUnits="objectBoundingBox" id="filter-35">
            <feGaussianBlur stdDeviation="1" in="SourceGraphic"></feGaussianBlur>
        </filter>
        <filter x="0.0%" y="0.0%" width="100.0%" height="100.0%" filterUnits="objectBoundingBox" id="filter-36">
            <feGaussianBlur stdDeviation="0" in="SourceGraphic"></feGaussianBlur>
        </filter>
        <filter x="-50.0%" y="-50.0%" width="200.0%" height="200.0%" filterUnits="objectBoundingBox" id="filter-37">
            <feGaussianBlur stdDeviation="1" in="SourceGraphic"></feGaussianBlur>
        </filter>
        <filter x="0.0%" y="0.0%" width="100.0%" height="100.0%" filterUnits="objectBoundingBox" id="filter-38">
            <feGaussianBlur stdDeviation="0" in="SourceGraphic"></feGaussianBlur>
        </filter>
        <filter x="-50.0%" y="-50.0%" width="200.0%" height="200.0%" filterUnits="objectBoundingBox" id="filter-39">
            <feGaussianBlur stdDeviation="1" in="SourceGraphic"></feGaussianBlur>
        </filter>
        <filter x="0.0%" y="0.0%" width="100.0%" height="100.0%" filterUnits="objectBoundingBox" id="filter-40">
            <feGaussianBlur stdDeviation="0" in="SourceGraphic"></feGaussianBlur>
        </filter>
        <filter x="-50.0%" y="-50.0%" width="200.0%" height="200.0%" filterUnits="objectBoundingBox" id="filter-41">
            <feGaussianBlur stdDeviation="1" in="SourceGraphic"></feGaussianBlur>
        </filter>
        <filter x="0.0%" y="0.0%" width="100.0%" height="100.0%" filterUnits="objectBoundingBox" id="filter-42">
            <feGaussianBlur stdDeviation="0" in="SourceGraphic"></feGaussianBlur>
        </filter>
        <filter x="-50.0%" y="-50.0%" width="200.0%" height="200.0%" filterUnits="objectBoundingBox" id="filter-43">
            <feGaussianBlur stdDeviation="1" in="SourceGraphic"></feGaussianBlur>
        </filter>
        <filter x="0.0%" y="0.0%" width="100.0%" height="100.0%" filterUnits="objectBoundingBox" id="filter-44">
            <feGaussianBlur stdDeviation="0" in="SourceGraphic"></feGaussianBlur>
        </filter>
        <filter x="-50.0%" y="-50.0%" width="200.0%" height="200.0%" filterUnits="objectBoundingBox" id="filter-45">
            <feGaussianBlur stdDeviation="1" in="SourceGraphic"></feGaussianBlur>
        </filter>
        <filter x="0.0%" y="0.0%" width="100.0%" height="100.0%" filterUnits="objectBoundingBox" id="filter-46">
            <feGaussianBlur stdDeviation="0" in="SourceGraphic"></feGaussianBlur>
        </filter>
        <filter x="-50.0%" y="-50.0%" width="200.0%" height="200.0%" filterUnits="objectBoundingBox" id="filter-47">
            <feGaussianBlur stdDeviation="1" in="SourceGraphic"></feGaussianBlur>
        </filter>
        <filter x="0.0%" y="0.0%" width="100.0%" height="100.0%" filterUnits="objectBoundingBox" id="filter-48">
            <feGaussianBlur stdDeviation="0" in="SourceGraphic"></feGaussianBlur>
        </filter>
        <filter x="-50.0%" y="-50.0%" width="200.0%" height="200.0%" filterUnits="objectBoundingBox" id="filter-49">
            <feGaussianBlur stdDeviation="1" in="SourceGraphic"></feGaussianBlur>
        </filter>
        <filter x="0.0%" y="0.0%" width="100.0%" height="100.0%" filterUnits="objectBoundingBox" id="filter-50">
            <feGaussianBlur stdDeviation="0" in="SourceGraphic"></feGaussianBlur>
        </filter>
        <filter x="-50.0%" y="-50.0%" width="200.0%" height="200.0%" filterUnits="objectBoundingBox" id="filter-51">
            <feGaussianBlur stdDeviation="1" in="SourceGraphic"></feGaussianBlur>
        </filter>
        <filter x="0.0%" y="0.0%" width="100.0%" height="100.0%" filterUnits="objectBoundingBox" id="filter-52">
            <feGaussianBlur stdDeviation="0" in="SourceGraphic"></feGaussianBlur>
        </filter>
        <filter x="-50.0%" y="-50.0%" width="200.0%" height="200.0%" filterUnits="objectBoundingBox" id="filter-53">
            <feGaussianBlur stdDeviation="1" in="SourceGraphic"></feGaussianBlur>
        </filter>
        <filter x="0.0%" y="0.0%" width="100.0%" height="100.0%" filterUnits="objectBoundingBox" id="filter-54">
            <feGaussianBlur stdDeviation="0" in="SourceGraphic"></feGaussianBlur>
        </filter>
        <filter x="-50.0%" y="-50.0%" width="200.0%" height="200.0%" filterUnits="objectBoundingBox" id="filter-55">
            <feGaussianBlur stdDeviation="1" in="SourceGraphic"></feGaussianBlur>
        </filter>
        <filter x="0.0%" y="0.0%" width="100.0%" height="100.0%" filterUnits="objectBoundingBox" id="filter-56">
            <feGaussianBlur stdDeviation="0" in="SourceGraphic"></feGaussianBlur>
        </filter>
        <filter x="-50.0%" y="-50.0%" width="200.0%" height="200.0%" filterUnits="objectBoundingBox" id="filter-57">
            <feGaussianBlur stdDeviation="1" in="SourceGraphic"></feGaussianBlur>
        </filter>
        <filter x="0.0%" y="0.0%" width="100.0%" height="100.0%" filterUnits="objectBoundingBox" id="filter-58">
            <feGaussianBlur stdDeviation="0" in="SourceGraphic"></feGaussianBlur>
        </filter>
        <filter x="-50.0%" y="-50.0%" width="200.0%" height="200.0%" filterUnits="objectBoundingBox" id="filter-59">
            <feGaussianBlur stdDeviation="1" in="SourceGraphic"></feGaussianBlur>
        </filter>
        <filter x="0.0%" y="0.0%" width="100.0%" height="100.0%" filterUnits="objectBoundingBox" id="filter-60">
            <feGaussianBlur stdDeviation="0" in="SourceGraphic"></feGaussianBlur>
        </filter>
        <filter x="-50.0%" y="-50.0%" width="200.0%" height="200.0%" filterUnits="objectBoundingBox" id="filter-61">
            <feGaussianBlur stdDeviation="1" in="SourceGraphic"></feGaussianBlur>
        </filter>
        <filter x="0.0%" y="0.0%" width="100.0%" height="100.0%" filterUnits="objectBoundingBox" id="filter-62">
            <feGaussianBlur stdDeviation="0" in="SourceGraphic"></feGaussianBlur>
        </filter>
        <filter x="-50.0%" y="-50.0%" width="200.0%" height="200.0%" filterUnits="objectBoundingBox" id="filter-63">
            <feGaussianBlur stdDeviation="1" in="SourceGraphic"></feGaussianBlur>
        </filter>
        <filter x="0.0%" y="0.0%" width="100.0%" height="100.0%" filterUnits="objectBoundingBox" id="filter-64">
            <feGaussianBlur stdDeviation="0" in="SourceGraphic"></feGaussianBlur>
        </filter>
        <filter x="-50.0%" y="-50.0%" width="200.0%" height="200.0%" filterUnits="objectBoundingBox" id="filter-65">
            <feGaussianBlur stdDeviation="1" in="SourceGraphic"></feGaussianBlur>
        </filter>
        <filter x="0.0%" y="0.0%" width="100.0%" height="100.0%" filterUnits="objectBoundingBox" id="filter-66">
            <feGaussianBlur stdDeviation="0" in="SourceGraphic"></feGaussianBlur>
        </filter>
        <filter x="-50.0%" y="-50.0%" width="200.0%" height="200.0%" filterUnits="objectBoundingBox" id="filter-67">
            <feGaussianBlur stdDeviation="1" in="SourceGraphic"></feGaussianBlur>
        </filter>
        <filter x="0.0%" y="0.0%" width="100.0%" height="100.0%" filterUnits="objectBoundingBox" id="filter-68">
            <feGaussianBlur stdDeviation="0" in="SourceGraphic"></feGaussianBlur>
        </filter>
        <filter x="-50.0%" y="-50.0%" width="200.0%" height="200.0%" filterUnits="objectBoundingBox" id="filter-69">
            <feGaussianBlur stdDeviation="1" in="SourceGraphic"></feGaussianBlur>
        </filter>
        <filter x="0.0%" y="0.0%" width="100.0%" height="100.0%" filterUnits="objectBoundingBox" id="filter-70">
            <feGaussianBlur stdDeviation="0" in="SourceGraphic"></feGaussianBlur>
        </filter>
        <filter x="-50.0%" y="-50.0%" width="200.0%" height="200.0%" filterUnits="objectBoundingBox" id="filter-71">
            <feGaussianBlur stdDeviation="1" in="SourceGraphic"></feGaussianBlur>
        </filter>
        <filter x="0.0%" y="0.0%" width="100.0%" height="100.0%" filterUnits="objectBoundingBox" id="filter-72">
            <feGaussianBlur stdDeviation="0" in="SourceGraphic"></feGaussianBlur>
        </filter>
        <filter x="-50.0%" y="-50.0%" width="200.0%" height="200.0%" filterUnits="objectBoundingBox" id="filter-73">
            <feGaussianBlur stdDeviation="1" in="SourceGraphic"></feGaussianBlur>
        </filter>
        <filter x="0.0%" y="0.0%" width="100.0%" height="100.0%" filterUnits="objectBoundingBox" id="filter-74">
            <feGaussianBlur stdDeviation="0" in="SourceGraphic"></feGaussianBlur>
        </filter>
        <filter x="-50.0%" y="-50.0%" width="200.0%" height="200.0%" filterUnits="objectBoundingBox" id="filter-75">
            <feGaussianBlur stdDeviation="1" in="SourceGraphic"></feGaussianBlur>
        </filter>
        <filter x="0.0%" y="0.0%" width="100.0%" height="100.0%" filterUnits="objectBoundingBox" id="filter-76">
            <feGaussianBlur stdDeviation="0" in="SourceGraphic"></feGaussianBlur>
        </filter>
        <filter x="-50.0%" y="-50.0%" width="200.0%" height="200.0%" filterUnits="objectBoundingBox" id="filter-77">
            <feGaussianBlur stdDeviation="1" in="SourceGraphic"></feGaussianBlur>
        </filter>
        <filter x="0.0%" y="0.0%" width="100.0%" height="100.0%" filterUnits="objectBoundingBox" id="filter-78">
            <feGaussianBlur stdDeviation="0" in="SourceGraphic"></feGaussianBlur>
        </filter>
    </defs>
    <g id="Page-1" stroke="none" stroke-width="1" fill="none" fill-rule="evenodd">
        <g id="MyWallet/content&gt;min.marg.16px" transform="translate(-16.000000, -273.000000)">
            <g id="Body" transform="translate(0.000000, 70.000000)">
                <g id="Card-Section" transform="translate(16.000000, 178.000000)">
                    <g id="Card" transform="translate(0.000000, 25.000000)">
                        <mask id="mask-2" fill="white">
                            <use xlink:href="#path-1"></use>
                        </mask>
                        <use id="Mask" fill="#003459" xlink:href="#path-1"></use>
                        <g id="Globe" mask="url(#mask-2)">
                            <g transform="translate(170.000000, -18.000000)">
                                <path d="M36.8043923,19.878773 C36.7916631,19.878773 36.7746908,19.8830061 36.7619616,19.8830061 C36.7152878,19.8999387 36.6601279,19.9253374 36.5582942,20.0057669 C36.1679318,20.3105521 35.8709168,20.7169325 35.4466098,20.9793865 C34.7380171,21.4111656 34.5216205,21.5423926 34.4876759,21.6482209 C34.491919,21.652454 34.5004051,21.6609202 34.5046482,21.6609202 C34.5598081,21.6693865 34.6107249,21.6566871 34.7846908,21.618589 C35.0562473,21.5635583 35.0901919,21.5635583 35.1411087,21.6016564 C35.2344563,21.6651534 35.2132409,21.817546 35.33629,21.8598773 C35.3744776,21.8725767 35.5696588,21.8556442 35.7648401,21.817546 C36.9910874,21.5889571 37.5002559,21.0852147 37.5044989,21.0852147 C37.6402772,20.9201227 37.3008316,20.2893865 37.3008316,20.2851534 C37.1523241,20.0311656 36.84258,19.878773 36.8043923,19.878773 Z" id="Path" fill="url(#radialGradient-3)" fill-rule="nonzero"></path>
                                <path d="M67.7406183,2.86582822 C67.3035821,3.40343558 66.15371,3.71245399 65.5384648,3.87754601 C65.5087633,3.88601227 62.3943497,4.78766871 62.2585714,4.96546012 C61.3972281,6.11687117 63.561194,6.4893865 63.5866525,6.48515337 C68.9498934,6.09147239 69.0177825,6.1507362 69.3954158,6.47668712 C69.4208742,6.50208589 71.9157996,9.26631902 71.1053731,10.7690798 C70.7786567,11.3786503 70.7786567,11.4040491 70.795629,11.4887117 C70.855032,11.8104294 71.2411514,11.8358282 71.3557143,12.1067485 C71.5254371,12.5258282 71.3514712,13.0041718 71.5848401,13.4105521 C72.2934328,13.2454601 72.8620043,12.5088957 73.7021322,12.8856442 C75.140533,13.5248466 74.474371,14.6762577 74.4658849,14.6889571 C73.8760981,15.3874233 72.8026013,15.3577914 72.2722175,16.1409202 C71.9794456,16.5726994 71.6909168,17.7579755 71.9115565,18.4564417 C72.0133902,18.7866258 76.2013006,25.8644172 78.212516,26.5374847 C77.2069083,11.8231288 76.464371,5.13055215 75.4502772,1.95147239 C76.3625373,4.74957055 77.1050746,10.2357055 78.212516,26.5374847 C83.2320682,27.4984049 83.338145,27.3798773 83.6563753,27.0200613 C84.1867591,26.4274233 85.0947761,21.851411 85.1032623,21.8048466 C85.2347974,21.1317791 84.8783795,20.4206135 85.2644989,19.7644785 C85.4681663,19.4258282 85.4936247,19.417362 86.7453305,19.0406135 C90.6998721,17.8468712 90.6998721,17.8468712 90.8017058,17.0976074 C90.9077825,16.3271779 90.9671855,15.903865 91.6800213,15.539816 C93.406951,14.6677914 95.3927079,14.5450307 97.1111514,13.6603067 C97.8155011,13.2962577 98.5834968,13.0634356 99.2369296,12.6020245 C99.2496588,12.5935583 99.5763753,12.3565031 99.1732836,11.8358282 C98.5877399,11.0780982 97.692452,10.6420859 97.1238806,9.86319018 C96.7632196,9.36791411 96.7759488,8.73717791 96.5256077,8.19957055 C96.2370789,7.57306748 96.364371,7.40374233 96.7207889,7.04815951 C97.208742,6.55288344 96.8692964,6.35392638 95.8636887,5.76128834 C92.5795522,3.82674847 92.5540938,3.78018405 92.2740512,3.34840491 C92.2910235,3.30607362 92.3122388,3.25527607 92.3334542,3.21294479 C92.384371,3.19177914 92.4522601,3.1706135 92.503177,3.14944785 C91.5442431,2.21392638 89.5966738,2.95472393 89.129936,1.17680982 C89.0323454,1.12601227 88.9008102,1.06251534 88.8032196,1.01595092 C88.8159488,0.931288344 88.8456503,0.821226994 88.8753518,0.740797546 C88.9177825,0.732331288 88.9686994,0.715398773 89.006887,0.706932515 C88.5740938,0.647668712 87.3308742,0.571472393 87.318145,0.567239264 C86.4865032,0.520674847 85.4342217,0.698466258 85.2347974,0.736564417 C84.5134755,0.863558282 83.9067164,0.393680982 83.2150959,0.372515337 C82.2434328,0.338650307 80.1049254,0.334417178 79.2563113,0.376748466 C77.6906183,0.465644172 77.6906183,0.465644172 77.5081663,0.588404908 L77.4996802,0.588404908 C75.7939659,0.681533742 75.7939659,0.681533742 74.9792964,0.838159509 L74.9750533,0.838159509 C74.958081,0.842392638 74.9368657,0.829693252 74.9283795,0.846625767 C74.9283795,0.855092025 74.9368657,0.850858896 74.9453518,0.850858896 C74.9623241,0.855092025 74.9792964,0.855092025 75.0005117,0.859325153 C75.9976333,0.935521472 75.9976333,0.935521472 76.2988913,1.00748466 C76.2140299,1.01595092 76.2140299,1.01595092 75.1023454,0.999018405 C74.6440938,0.994785276 74.474371,0.990552147 73.9355011,1.04134969 C69.9342857,1.48582822 67.0617271,2.77269939 67.0320256,2.78539877 C67.1635608,2.86582822 67.1635608,2.86582822 67.7406183,2.86582822 Z" id="Path" fill="url(#radialGradient-4)" fill-rule="nonzero"></path>
                                <path d="M52.6013433,19.7433129 C52.8050107,19.2014724 52.7159062,18.9559509 52.3340299,19.0152147 C52.3213006,19.0194479 51.1799147,19.32 50.9720043,19.8279755 C50.8531983,20.1200613 51.3284222,20.8777914 51.5193603,20.996319 C51.981855,21.292638 52.5928571,19.7602454 52.6013433,19.7433129 Z" id="Path" fill="url(#radialGradient-5)" fill-rule="nonzero"></path>
                                <path d="M59.2629638,19.8322086 C59.8357783,19.7856442 61.1002132,21.3688344 61.1129424,21.3857669 C61.4142004,21.7752147 61.7281876,22.1815951 62.0082303,22.1265644 C62.7974414,21.9784049 63.9770149,18.9686503 63.9897441,18.9390184 C64.0194456,18.8458896 64.0449041,18.7188957 64.040661,18.6215337 L58.2658422,17.3134969 C58.4270789,17.1865031 58.5840725,17.0679755 59.9715565,16.4541718 C60.5783156,16.1874847 60.8838166,16.0520245 60.8626013,15.8911656 C60.8159275,15.4805521 58.7834968,13.5629448 57.7991045,13.4020859 C57.3620682,13.3343558 56.8995736,13.4655828 56.4752665,13.2581595 C56.0255011,13.0380368 56.080661,12.3099387 55.4654158,12.2633742 C54.9010874,12.2168098 53.6833262,12.6739877 52.7965245,13.0084049 C51.8969936,13.3470552 51.8885075,13.3428221 51.7442431,13.338589 C51.6848401,13.1946626 51.621194,13.0422699 51.5660341,11.7342331 C51.2011301,11.5903067 50.0597441,11.7850307 49.7202985,11.8485276 C47.9806397,12.254908 42.7998507,16.5896319 43.7757569,17.25 C44.7389339,17.906135 48.0655011,17.2288344 48.5152665,17.0129448 C48.4473774,16.7335583 48.4049467,16.5515337 49.8560768,16.394908 C51.0865672,16.2594479 51.2690192,15.9631288 51.3920682,15.7684049 C51.6890832,15.9250307 52.4825373,16.6107975 52.4867804,16.6150307 C52.9110874,17.0679755 53.0892964,17.677546 53.4839019,18.1474233 C53.9803412,18.7400613 55.1259701,18.6765644 55.1386994,19.7687117 C55.1386994,19.7898773 54.8926013,22.2366258 51.4726866,23.2568098 C50.4501066,23.5615951 49.3384222,23.5023313 48.3710021,24.018773 C47.942452,24.247362 47.9297228,24.9669939 48.0527719,25.0770552 C48.239467,25.2463804 48.846226,25.3183436 50.6410448,24.7130061 C52.0157996,24.247362 52.0157996,24.247362 54.455565,25.3183436 C54.2603838,25.5257669 54.2603838,25.5257669 53.2759915,25.8940491 C53.8148614,26.3681595 57.9857996,27.2359509 58.8386567,26.7618405 C58.8047122,26.6348466 58.8047122,26.6348466 58.5883156,26.5290184 C58.4779957,26.4739877 58.4779957,26.4739877 56.623774,24.7511043 C58.070661,24.9077301 58.5289126,25.0897546 59.3520682,25.6485276 C59.5133049,25.758589 59.6278678,25.8347853 59.7042431,25.8136196 C60.1709808,25.6696933 60.9432196,23.921411 60.5698294,23.5361963 C59.759403,22.6938037 58.253113,22.8080982 57.7906183,21.4958282 C57.4044989,20.4163804 59.2417484,19.8364417 59.2629638,19.8322086 Z" id="Path" fill="url(#radialGradient-6)" fill-rule="nonzero"></path>
                                <path d="M173.541578,88.9168712 C173.401557,86.4193252 173.278507,83.0836196 173.023923,80.5945399 C172.913603,79.8452761 172.81177,79.1595092 172.714179,78.5203067 C172.115906,76.5434356 172.064989,76.2259509 170.885416,69.2328221 C170.898145,69.2582209 170.91936,69.296319 170.93209,69.3217178 C168.055288,59.8056442 168.055288,59.8056442 168.008614,59.3442331 C168.021343,59.3611656 168.034072,59.373865 168.046802,59.3865644 C167.032708,56.4064417 166.56597,55.3904908 165.195458,52.4273006 L162.123475,46.4247239 C161.274861,45.3071779 160.294712,44.3208589 158.847825,43.3938037 C160.201365,44.2488957 161.283348,45.2352147 162.123475,46.4247239 C160.939659,44.4944172 159.424883,41.8868098 158.164691,40.0073006 C152.767505,32.658589 152.661429,32.5146626 149.317889,28.9249693 L145.745224,25.3183436 L145.736738,25.3056442 C145.600959,25.1828834 145.469424,25.0601227 145.329403,24.9415951 C145.482154,25.1490184 145.541557,25.2294479 147.026631,26.7618405 C146.759318,26.6094479 146.530192,26.4020245 146.275608,26.22 C146.695672,26.9777301 147.446695,27.4052761 148.032239,27.9979141 C147.989808,28.027546 147.934648,28.061411 147.896461,28.0910429 C145.401535,26.0633742 143.28,23.625092 140.759616,21.6228221 C142.019808,22.4017178 143.012687,23.5615951 144.378955,24.1880982 C144.056482,23.6039264 140.229232,20.3020859 137.708849,18.7823926 C135.897058,17.6902454 135.701876,17.5082209 135.510938,17.3346626 C135.612772,17.3685276 135.74855,17.4193252 135.846141,17.4658896 C135.646716,17.3050307 135.536397,17.216135 135.031471,16.9155828 C134.993284,16.9452147 134.942367,16.987546 134.899936,17.0171779 C134.738699,16.953681 134.428955,16.8393865 133.223923,16.0223926 C133.33,16.0647239 133.474264,16.1155215 133.584584,16.1451534 C133.376674,15.6625767 131.166034,14.655092 131.004797,14.6085276 C131.106631,14.8625153 131.106631,14.8625153 131.475778,15.2900613 C130.707783,15.0233742 130.321663,14.2148466 129.55791,13.9439264 C129.702175,14.2910429 130.084051,14.456135 130.228316,14.7990184 C129.952516,15.4043558 129.952516,15.4043558 129.994947,15.772638 C130.067079,16.3271779 131.849168,19.451227 131.861898,19.4808589 C133.189979,21.5169939 133.134819,22.2239264 133.126333,22.3001227 C132.867505,24.1923313 132.867505,24.1923313 131.82371,24.9331288 C131.441834,25.2082822 131.45032,25.3395092 131.653987,25.8390184 C131.683689,25.9067485 134.467143,32.4088344 137.038443,31.2193252 C137.865842,30.8383436 137.454264,29.4752761 137.25484,28.8191411 C137.466994,28.9715337 142.070725,33.5390798 142.927825,34.9783436 C143.33516,35.6641104 143.721279,36.3117791 144.429872,36.3117791 C144.574136,36.0577914 144.646269,34.2502454 144.200746,33.4247853 C143.173923,31.5283436 143.411535,31.312454 143.92919,30.8341104 C143.946162,30.3769325 143.895245,30.2076074 142.558678,29.3271166 C141.633689,28.717546 141.633689,28.717546 140.37774,26.6941104 C139.898273,25.923681 140.691727,24.9542945 139.983134,24.2219632 C138.137399,22.308589 138.137399,22.308589 138.082239,22.1985276 C138.048294,22.1265644 138.010107,22.0334356 137.976162,21.9614724 C138.00162,21.9191411 138.039808,21.8598773 138.06951,21.817546 C138.756887,22.046135 141.048145,23.557362 141.217868,24.0314724 C141.162708,24.0357055 141.086333,24.0441718 141.031173,24.0484049 C142.809019,28.0106135 142.809019,28.0106135 144.493518,29.572638 C145.96162,30.9399387 148.197719,30.7325153 149.674307,32.0828834 C149.419723,32.0490184 149.203326,31.9093252 148.969957,31.8161963 C148.927527,31.8415951 148.872367,31.8796933 148.825693,31.905092 C148.914797,32.0828834 149.037846,32.2352761 149.143923,32.4046012 C148.286823,32.1590798 147.46791,31.7865644 146.572623,31.6722699 C147.548529,33.0099387 148.940256,34.0089571 149.699765,35.520184 C148.740832,35.486319 148.672942,34.0893865 147.641876,34.169816 C147.612175,34.2163804 147.569744,34.2841104 147.540043,34.3306748 C147.552772,34.3476074 148.71113,36.4684049 148.829936,36.6207975 C148.98693,36.8197546 149.771898,37.8230061 149.716738,38.2717178 C149.131194,38.2166871 149.131194,38.2166871 149.016631,38.246319 C148.936013,38.4283436 148.906311,38.6273006 148.829936,38.8093252 C148.859638,38.8474233 148.897825,38.902454 148.927527,38.9405521 L148.910554,38.936319 C146.199232,38.7458282 146.199232,38.7458282 146.18226,39.0082822 C146.07194,39.0760123 145.91919,39.1691411 145.80887,39.2368712 C145.248785,38.9109202 144.531706,38.7119632 143.789168,38.5595706 L145.096034,38.7881595 C144.875394,38.6230675 144.285608,38.1828221 143.229083,38.2336196 C142.868422,38.2505521 142.787804,38.2547853 141.777953,37.1033742 C141.035416,36.2567485 140.161343,35.024908 140.208017,33.9666258 C140.224989,33.5306135 139.56307,31.6849693 139.070874,31.6341718 C139.011471,31.6341718 137.602772,31.6257055 137.844627,32.3114724 C137.946461,32.6035583 139.749765,35.748773 141.031173,37.2219018 C141.548827,37.818773 141.574286,37.8992025 141.587015,37.9373006 C141.523369,38.0092638 141.506397,38.0219632 141.12452,38.0981595 C140.852964,38.1447239 140.48806,38.2039877 140.216503,38.2505521 C140.135885,38.3606135 140.029808,38.508773 139.94919,38.6188344 C138.515032,38.5765031 138.515032,38.5765031 138.120426,38.9617178 C138.192559,39.3553988 138.328337,40.0834969 138.812047,41.4169325 C138.739915,41.5396933 138.65081,41.7005521 138.578678,41.8233129 C137.382132,41.7979141 137.382132,41.7979141 136.703241,42.0476687 C136.711727,42.1153988 136.711727,42.1153988 137.225139,43.3768712 C136.949339,43.567362 136.537761,43.766319 136.215288,43.8721472 C136.206802,44.1684663 136.130426,44.5663804 136.003134,44.8330675 C134.619893,44.7653374 134.399254,44.6002454 133.796738,44.16 C133.945245,44.4266871 134.165885,44.7653374 134.348337,45.0066258 C134.305906,45.1420859 134.246503,45.3241104 134.204072,45.4595706 C133.928273,45.5780982 133.546397,45.7177914 133.253625,45.7897546 C132.58322,45.3622086 132.58322,45.3622086 131.501237,45.3325767 C131.446077,45.4595706 131.365458,45.6246626 131.310299,45.7516564 C131.577612,45.9887117 131.938273,46.3061963 132.214072,46.5474847 C132.103753,46.6279141 131.951002,46.7337423 131.840682,46.8099387 C138.315608,48.6047853 137.301514,55.0984049 137.263326,55.1534356 C134.246503,54.937546 131.335757,54.0401227 128.335906,53.7353374 C128.484414,53.9935583 128.717783,54.3195092 128.917207,54.5353988 C128.912964,54.6158282 129.248166,62.6376074 130.283475,62.9423926 C130.003433,65.418773 130.003433,65.418773 129.952516,65.6431288 C132.048593,65.4822699 132.485629,65.4441718 133.38516,65.6515951 C133.733092,67.0654601 133.733092,67.0654601 133.750064,67.095092 L138.663539,65.4695706 C140.021322,65.3002454 140.360768,63.5858282 139.626716,62.430184 C140.407441,59.208773 140.449872,59.1918405 142.469574,58.3960123 C142.499275,55.792638 142.499275,55.792638 142.719915,55.6148466 C143.657633,54.8359509 144.387441,56.0804908 145.261514,56.0847239 C146.059211,54.6708589 146.72113,53.7522699 147.972836,54.8274847 C148.036482,54.8782822 154.889041,62.7349693 155.567932,64.9361963 C156.0771,66.599816 155.843731,66.633681 152.949957,67.027362 C153.514286,67.9882822 155.270917,69.5037423 155.283646,69.5079755 C155.533987,68.7248466 155.041791,67.9713497 155.190299,67.192454 C155.321834,67.2093865 155.491557,67.2305521 155.618849,67.2474847 C155.983753,66.7098773 156.128017,66.0664417 156.46322,65.516135 C156.03467,64.0176074 156.03467,64.0176074 156.047399,63.4757669 C156.178934,63.4419018 156.3529,63.3953374 156.484435,63.3614724 C156.658401,63.6027607 156.89177,63.9202454 157.069979,64.1573006 C156.925714,63.4546012 156.925714,63.4546012 154.604755,60.6692025 C154.638699,60.5379755 154.68113,60.360184 154.710832,60.2247239 C153.620362,59.7421472 152.754776,59.3569325 149.852516,53.4305521 C149.992537,53.2104294 150.276823,52.9691411 150.518678,52.8802454 L157.108166,60.6057055 C157.133625,60.6438037 157.133625,60.6438037 159.093923,66.273865 L161.181514,71.0488344 C161.219701,70.773681 161.24516,70.4011656 161.24516,70.1217791 C161.240917,68.9873006 160.808124,67.9374847 160.587484,66.8453374 C159.874648,63.3022086 159.874648,63.3022086 160.22258,63.0355215 C160.859041,63.1709816 162.191365,63.9625767 162.471407,64.9954601 C162.607186,64.7541718 162.759936,64.4155215 162.853284,64.1530675 C162.993305,64.1446012 163.184243,64.1319018 163.320021,64.1234356 C163.752814,60.8935583 161.444584,58.1039264 161.843433,54.8825153 C162.081045,54.7978528 162.450192,54.8190184 162.679318,54.9248466 C162.624158,55.0433742 162.547783,55.2042331 162.492623,55.3227607 C162.899957,55.7968712 163.065437,55.9196319 163.540661,56.2074847 C163.676439,56.7747239 163.676439,56.7747239 163.527932,57.6552147 C163.952239,58.1293252 164.14742,58.747362 164.512324,59.2595706 C166.073774,58.3621472 163.744328,56.7704908 164.206823,55.4582209 C164.902687,55.3100613 165.021493,55.5386503 165.220917,56.0720245 C165.153028,56.1990184 165.05968,56.3641104 164.991791,56.4911043 C165.233646,56.8805521 165.233646,56.8805521 165.594307,58.2690184 C165.517932,58.3790798 165.416098,58.5314724 165.33548,58.6415337 C166.459893,61.4057669 169.001493,63.5561963 168.899659,66.8538037 C168.785096,66.9173006 168.628102,67.0061963 168.509296,67.0696933 C167.164243,66.1680368 167.232132,63.1963804 165.051194,63.7678528 C165.034222,64.0260736 164.898443,64.3731902 164.720235,64.5594479 C164.461407,64.4705521 164.109232,64.3731902 163.846162,64.3139264 C163.901322,64.5594479 164.079531,64.8726994 164.261983,65.0462577 C163.761301,65.4695706 163.086652,65.2113497 162.543539,65.4822699 C162.501109,65.778589 162.47565,66.1807362 162.48838,66.4770552 C162.611429,66.5151534 162.776908,66.5617178 162.9042,66.599816 C163.120597,68.2507362 163.527932,71.3239877 165.564606,73.0341718 C165.657953,72.9368098 165.785245,72.809816 165.878593,72.7166871 C165.87435,72.581227 165.865864,72.4076687 165.86162,72.2722086 C166.523539,72.8267485 166.744179,73.7538037 167.516418,74.2194479 C167.609765,73.961227 167.694627,73.601411 167.720085,73.3262577 C167.902537,73.5167485 168.208038,73.7241718 168.454136,73.8215337 C168.793582,80.073865 168.844499,81.0347853 168.157122,82.7238037 C167.257591,82.6518405 167.109083,82.4571166 166.820554,81.5766258 C166.574456,81.585092 166.226525,81.7205521 166.056802,81.8983436 C163.061194,81.6782209 163.336994,77.3350307 160.209851,77.2842331 C159.62855,78.3213497 160.086802,79.5235583 159.68371,80.5860736 C159.556418,80.6368712 159.386695,80.7046012 159.25516,80.7596319 C158.60597,80.2855215 151.736439,74.0501227 151.244243,73.237362 C151.091493,72.9833742 151.29516,72.5219632 151.456397,72.2722086 C151.829787,71.6795706 151.829787,71.6795706 151.545501,67.9882822 C150.798721,67.4972393 150.650213,67.4168098 150.196205,67.1755215 C149.593689,67.6369325 149.593689,67.6369325 147.077548,67.0569939 C146.869638,67.260184 146.61081,67.5565031 146.462303,67.8104908 C143.199382,66.5405521 140.560192,70.1090798 137.318486,68.9873006 C136.962068,68.9576687 136.898422,68.9534356 136.834776,68.9534356 C135.91403,69.1396933 135.604286,69.2031902 134.607164,68.0094479 C134.428955,67.882454 134.420469,67.882454 134.420469,67.882454 C134.293177,67.9925153 134.114968,68.1237423 134.008891,68.2507362 C133.397889,68.9957669 133.860384,70.049816 133.266354,70.7990798 C132.523817,71.7303681 131.127846,71.7134356 130.440469,72.7251534 C130.236802,73.0257055 130.330149,73.5633129 130.313177,73.9231288 C130.105267,77.8557055 130.105267,77.8557055 129.044499,78.3679141 C128.089808,78.8293252 126.451983,80.0950307 126.248316,80.4209816 C125.658529,81.3692025 121.305139,88.8999387 121.305139,88.9041718 C121.12693,90.914908 122.463497,92.6123926 122.493198,94.5765644 C122.5229,96.2274847 120.15951,97.0106135 120.910533,98.9239877 C122.026461,101.789816 123.579424,104.443988 124.903262,107.208221 C125.459104,108.368098 129.642772,112.355706 130.436226,112.279509 C134.373795,111.911227 138.171343,110.429632 142.20226,110.865644 C142.333795,110.878344 142.486546,110.988405 142.584136,111.073067 C143.309701,111.678405 142.792047,112.774785 143.50064,113.388589 C144.196503,113.993926 145.10452,113.693374 145.885245,113.938896 C146.4029,115.50092 146.4029,115.50092 145.757953,117.007914 C152.534136,118.256687 156.806908,119.395399 159.895864,120.893926 C156.853582,119.416564 152.462004,118.243988 145.757953,117.007914 C143.97162,121.194479 143.97162,121.194479 144.24742,122.392454 C144.680213,124.280429 145.27,126.866871 142.85145,132.539264 C141.735522,135.151104 139.605501,137.072945 138.133156,139.439264 C136.766887,141.644724 136.609893,144.320061 135.341215,146.56362 C130.419254,155.300798 130.279232,155.448957 129.490021,156.257485 C128.955394,156.807791 128.65838,157.108344 128.102537,158.374049 C130.622921,159.152945 133.588827,157.137975 134.56049,156.477607 L138.464115,153.73454 L143.403049,149.806196 C144.518977,148.646319 145.180896,147.130859 146.373198,146.034479 C147.739467,144.773006 149.559744,144.167669 150.904797,142.880798 C154.121045,139.811779 157.112409,133.71184 157.422154,132.95411 C158.669616,129.918957 162.929659,125.275215 164.189851,123.937546 C166.175608,121.740552 168.840256,115.970798 169.502175,113.710307 C168.997249,113.545215 168.997249,113.545215 168.110448,113.731472 C167.911023,113.456319 167.911023,113.456319 168.326844,109.84546 C168.483838,108.507791 168.178337,107.191288 168.152878,105.862086 C168.084989,102.407853 168.759638,98.9747853 168.449893,95.5120859 L167.529147,84.6117791 C167.745544,84.9504294 167.745544,84.9504294 167.978913,86.5251534 C168.212281,86.3346626 168.40322,85.9452147 168.475352,85.6531288 C170.715693,93.8780982 168.343817,102.124233 168.606887,110.357669 C169.510661,109.934356 169.510661,109.934356 169.913753,110.023252 C172.302601,104.88 172.302601,104.88 172.421407,104.215399 C172.395949,104.359325 172.37049,104.554049 172.345032,104.702209 C172.395949,104.431288 172.463838,104.071472 172.506269,103.796319 L172.552942,103.495767 L172.816013,101.595092 L172.816013,101.595092 C172.92209,100.723067 173.057868,99.6351534 173.261535,96.6804294 C173.257292,96.8370552 173.253049,96.9852147 173.248806,97.124908 C173.388827,94.5723313 173.55855,91.3720859 173.541578,88.9168712 Z M172.981493,98.4498773 C172.807527,98.077362 172.807527,98.077362 172.934819,94.9829448 C172.849957,95.9650307 172.849957,95.9650307 172.794797,96.3968098 C172.561429,89.6915337 172.659019,89.0819632 172.799041,88.2311043 C173.189403,88.8195092 173.35064,93.7765031 173.291237,96.633865 C173.159701,97.8022086 173.108785,97.9884663 172.981493,98.4498773 Z" id="Shape" fill="url(#radialGradient-7)" fill-rule="nonzero"></path>
                                <path d="M121.648827,36.7477914 C121.644584,36.7731902 121.627612,36.8028221 121.614883,36.8239877 C121.275437,37.4801227 121.033582,38.7331288 121.033582,38.7458282 C120.948721,39.2495706 120.978422,39.4908589 121.143902,39.6940491 C121.432431,40.0411656 122.768998,39.8930061 123.740661,39.2707362 C123.986759,39.1141104 124.211642,38.9320859 124.474712,38.8008589 C124.780213,38.6484663 125.187548,38.7585276 125.42516,38.4325767 C125.556695,38.246319 125.505778,37.8145399 125.263923,37.1499387 C125.140874,36.8112883 124.99661,36.603865 124.843859,36.3837423 C124.589275,36.011227 124.572303,35.8757669 124.742026,35.486319 C124.814158,35.321227 124.932964,35.0418405 124.843859,34.6947239 C124.750512,34.3518405 124.487441,34.1147853 124.279531,33.975092 C124.177697,33.9031288 124.02919,33.8269325 123.914627,33.7719018 C123.604883,33.6237423 123.26968,33.5517791 122.959936,33.4120859 C122.735053,33.3104908 122.654435,33.2258282 122.62049,33.1834969 C122.595032,33.153865 122.586546,33.153865 122.556844,33.153865 C122.471983,33.1750307 120.452281,33.678773 121.725203,34.3857055 C121.805821,34.4322699 121.848252,34.4576687 122.030704,34.4703681 C121.98403,34.5169325 121.903412,34.5507975 121.848252,34.5804294 C121.012367,34.9868098 120.812942,35.19 120.622004,35.3847239 C120.486226,35.520184 120.337719,35.7614724 120.397122,36.1255215 C120.448038,36.2567485 120.520171,36.438773 120.846887,36.603865 C121.097228,36.7308589 121.385757,36.6758282 121.648827,36.7477914 Z" id="Path" fill="url(#radialGradient-8)" fill-rule="nonzero"></path>
                                <path d="M147.985565,62.6714724 C148.142559,62.8407975 148.482004,62.7603681 148.541407,63.0651534 C148.60081,63.3403067 148.49049,63.6239264 148.566866,63.8990798 C148.630512,64.1234356 148.787505,64.1615337 148.859638,64.1826994 C149.04209,64.2292638 149.979808,63.9287117 150.001023,63.1794479 C150.001023,63.0947853 149.988294,62.9847239 149.979808,62.9000613 C149.933134,62.5868098 149.814328,62.2904908 149.767655,61.9814724 C149.720981,61.6470552 149.742196,61.3084049 149.695522,60.9739877 C149.619147,60.4448466 149.428209,60.3855828 149.241514,60.3644172 C148.940256,60.3728834 148.210448,60.6480368 147.947377,61.1306135 C147.79887,61.4057669 147.760682,62.4259509 147.985565,62.6714724 Z" id="Path" fill="url(#radialGradient-9)" fill-rule="nonzero"></path>
                                <path d="M143.326674,62.5233129 C143.330917,62.5190798 143.70855,62.0957669 143.70855,62.0788344 C143.742495,61.9264417 143.479424,61.7994479 143.012687,61.7486503 C142.507761,61.7020859 141.701578,61.8079141 142.015565,62.1719632 C142.189531,62.3709202 142.85145,62.6503067 143.123006,62.6376074 C143.216354,62.6291411 143.263028,62.5868098 143.326674,62.5233129 Z" id="Path" fill="url(#radialGradient-10)" fill-rule="nonzero"></path>
                                <path d="M147.981322,58.2944172 C147.904947,58.3663804 147.828571,58.4298773 147.858273,58.5949693 C147.866759,58.6542331 147.930405,58.7727607 147.989808,58.8489571 C147.998294,58.8574233 148.719616,59.7082822 148.770533,59.7294479 C148.936013,59.6490184 148.783262,58.3663804 148.643241,57.697546 C148.638998,57.6890798 148.409872,56.677362 148.265608,56.5842331 C148.261365,56.5842331 148.252878,56.5884663 148.252878,56.5884663 C148.240149,56.6011656 148.214691,56.6265644 148.201962,56.6900613 C148.197719,56.7069939 148.189232,56.7366258 148.189232,56.7535583 C148.129829,57.0752761 148.244392,57.3885276 148.244392,57.7102454 C148.240149,58.0658282 148.091642,58.2012883 147.981322,58.2944172 Z" id="Path" fill="url(#radialGradient-11)" fill-rule="nonzero"></path>
                                <path d="M28.6916418,19.8195092 C28.7001279,19.8279755 28.7128571,19.844908 28.7213433,19.8533742 C28.7552878,19.8491411 28.8019616,19.8322086 28.82742,19.8110429 C29.3408316,19.4596933 29.7863539,19.0194479 30.2955224,18.663865 C31.2205117,18.0204294 32.2133902,17.4870552 33.1256503,16.822454 C33.3378038,16.6658282 33.3378038,16.6658282 33.6051173,16.166319 C33.5966311,16.1493865 33.588145,16.1282209 33.5839019,16.1112883 C33.2614286,16.1790184 33.0238166,16.4033742 32.7480171,16.5515337 C32.9813859,16.3483436 32.9813859,16.3483436 33.0153305,16.1874847 C33.0026013,16.1832515 32.9898721,16.1747853 32.9813859,16.166319 C32.9474414,16.1747853 32.9050107,16.1874847 32.8710661,16.200184 C31.7339232,16.6785276 31.7339232,16.6785276 26.714371,20.7931288 C26.2773348,21.1529448 25.929403,21.4365644 25.5729851,22.1858282 C25.5857143,22.1900613 25.6069296,22.1985276 25.6154158,22.2069939 C26.8246908,21.6397546 27.6648188,20.6111043 28.6916418,19.8195092 Z" id="Path" fill="url(#radialGradient-12)" fill-rule="nonzero"></path>
                                <path d="M25.5135821,24.1457669 C25.7808955,24.2092638 25.9845629,23.9764417 26.2349041,23.9891411 C26.2476333,24.0018405 26.2603625,24.0230061 26.2730917,24.0357055 C26.1585288,24.3531902 25.8572708,24.5352147 25.7002772,24.8188466 C26.0015352,24.8230675 28.4710021,23.7266871 29.8669723,22.604908 C30.3167377,22.245092 30.5034328,22.0926994 30.753774,21.9995706 C30.7665032,22.0122699 30.7877186,22.0249693 30.8046908,22.0334356 C30.6901279,22.2535583 30.6901279,22.2535583 30.6731557,22.3001227 C30.7919616,22.4144172 31.7296802,22.6176074 31.7339232,22.6176074 C32.6122388,22.3212883 32.6122388,22.3212883 33.4735821,21.3646012 C33.5032836,21.3307362 33.5075267,21.3222699 33.5160128,21.3138037 C33.4269083,21.2968712 33.4269083,21.2968712 32.6079957,21.7328834 C32.6971002,21.4450307 33.5584435,20.797362 34.1439872,20.8227607 C34.3561407,20.8354601 34.3985714,20.8185276 34.4749467,20.7634969 C34.4791898,20.7592638 34.9247122,20.3528834 34.85258,19.9888344 C34.3900853,19.7263804 34.1991471,19.2141718 34.4452452,18.9178528 C34.6616418,18.6511656 36.5625373,16.3271779 36.5158635,16.1366871 C36.4267591,16.0901227 36.3291684,16.0774233 36.240064,16.0477914 C36.2273348,16.0181595 36.2146055,15.9842945 36.2018763,15.9546626 C36.1976333,15.9588957 36.1849041,15.967362 36.180661,15.9715951 C35.3023454,16.7123926 34.6998294,17.7495092 33.6730064,18.333681 C33.5754158,17.9146012 34.012452,17.7791411 34.1355011,17.4743558 C34.1142857,17.4574233 34.0803412,17.4362577 34.0548827,17.4193252 C33.651791,17.5717178 33.3165885,17.8765031 32.8837953,17.9696319 C33.0026013,17.7791411 33.2105117,17.6606135 33.3123454,17.4531902 C33.2996162,17.4404908 33.2826439,17.4235583 33.2699147,17.4108589 C32.6971002,17.5844172 32.2685501,18.0288957 31.716951,18.2405521 C32.0563966,17.7706748 32.6207249,17.5590184 33.0068443,17.1441718 C32.6631557,17.1780368 28.1485288,20.0904294 28.2546055,20.6322699 C28.3097655,20.6534356 28.3818977,20.6915337 28.4285714,20.7253988 C28.339467,20.8693252 28.339467,20.8777914 27.8048401,21.1995092 C26.9053092,21.7413497 26.8671215,21.8471779 26.8713646,21.9784049 C26.9180384,21.9995706 26.9859275,22.0080368 27.0368443,21.9995706 C27.5375267,21.9022086 27.9448614,21.5677914 28.4413006,21.4577301 C28.7934755,21.3815337 29.1456503,21.5339264 29.4978252,21.4577301 C28.8698507,21.9445399 28.0254797,22.1942945 27.6690618,22.3043558 C25.3226439,23.0028221 25.0935181,24.0441718 25.5135821,24.1457669 Z" id="Path" fill="url(#radialGradient-13)" fill-rule="nonzero"></path>
                                <path d="M46.1476333,28.4127607 C46.2240085,28.2138037 46.0203412,28.2222699 45.8633475,28.2476687 C45.8548614,28.2519018 45.1759701,28.3746626 45.0020043,28.586319 C44.7559062,28.8868712 44.8153092,29.3144172 44.9213859,29.3990798 C45.1802132,29.6149693 46.0457996,28.6921472 46.1476333,28.4127607 Z" id="Path" fill="url(#radialGradient-14)" fill-rule="nonzero"></path>
                                <path d="M44.9977612,26.7660736 C45.0274627,26.7533742 45.1208102,26.7068098 45.1547548,26.6348466 C45.2311301,26.4782209 45.1123241,26.22 45.0274627,26.1395706 C44.8789552,25.9998773 44.6795309,25.9194479 44.5395096,25.7712883 C44.2934115,25.5130675 44.1661194,25.1617178 43.8818337,24.9331288 C43.839403,24.8992638 43.7757569,24.8611656 43.7290832,24.8315337 C43.4447974,24.6579755 43.0926226,24.6876074 42.8083369,24.5140491 C42.6258849,24.4039877 42.6216418,24.15 42.4391898,24.0399387 C42.4179744,24.0272393 42.3840299,24.0314724 42.3585714,24.0399387 C42.0997441,24.1626994 41.2214286,25.3945399 41.1832409,25.4453374 C41.068678,25.6061963 40.9286567,25.8220859 40.82258,25.991411 L39.8636461,27.5407362 C40.4322175,27.5873006 40.4322175,27.5873006 40.4788913,27.8751534 C40.5340512,28.2392025 40.5340512,28.2392025 40.5892111,28.2307362 C40.6655864,28.2180368 40.8183369,28.0910429 41.1323241,27.8328221 C41.5820896,27.4560736 42.333113,26.8211043 43.2156716,26.7237423 C43.8097015,26.6517791 44.3994883,26.9734969 44.9977612,26.7660736 Z" id="Path" fill="url(#radialGradient-15)" fill-rule="nonzero"></path>
                                <path d="M43.419339,27.8243558 C43.4066098,27.8243558 42.1421748,28.0995092 41.7348401,28.4169939 C41.488742,28.6074847 41.4505544,29.1408589 41.5905757,29.2382209 C41.8536461,29.4287117 43.4447974,28.4889571 43.7333262,28.0487117 C43.8224307,27.9090184 43.8436461,27.7566258 43.419339,27.8243558 Z" id="Path" fill="url(#radialGradient-16)" fill-rule="nonzero"></path>
                                <path d="M40.1691471,98.7546626 C39.6896802,98.9493865 39.9654797,99.7028834 40.2582516,99.8087117 C40.4576759,99.8806748 41.7093817,100.113497 41.6839232,99.5928221 C41.671194,99.2880368 40.8013646,98.6192025 40.1691471,98.7546626 Z" id="Path" fill="url(#radialGradient-17)" fill-rule="nonzero"></path>
                                <path d="M127.461834,36.4133742 C127.372729,36.4260736 127.389701,36.472638 127.410917,36.5615337 L128.017676,36.6080982 C127.690959,36.4599387 127.559424,36.4133742 127.461834,36.4133742 Z" id="Path" fill="url(#radialGradient-18)" fill-rule="nonzero"></path>
                                <path d="M68.8268443,42.8011656 C69.4039019,42.0519018 69.6584861,41.5481595 69.5821109,41.3153374 C69.5524094,41.3068712 69.5099787,41.2899387 69.4760341,41.2941718 C69.1620469,41.4 68.321919,42.1111656 67.6727292,42.911227 C66.8877612,43.8763804 66.3488913,45.0108589 65.5808955,45.9844785 C65.1693177,46.5051534 64.6007463,46.8692025 64.2103838,47.4110429 C64.0618763,47.6184663 64.1806823,47.6777301 64.2443284,47.7115951 C64.346162,47.7623926 64.346162,47.7623926 66.6798507,47.9528834 C68.0121748,48.0587117 68.9923241,48.1772393 70.0361194,48.4608589 C70.1549254,48.4904908 70.311919,48.5497546 70.434968,48.5582209 C70.8126013,48.5793865 71.2072068,48.202638 71.5763539,48.5920859 C71.758806,48.7868098 71.7757783,49.1381595 71.7927505,49.3709816 C71.8054797,49.6249693 71.9242857,49.646135 71.9964179,49.6376687 C72.3698081,49.5953374 72.8323028,48.8757055 72.8789765,48.266135 C72.9511087,47.2882822 72.2043284,45.768589 71.457548,44.9642945 C71.0671855,44.5452147 71.0671855,44.5452147 69.6966738,44.8457669 C69.2766098,44.9346626 69.1875053,44.85 69.0941578,44.5028834 C68.9117058,43.8467485 68.7504691,43.732454 68.4958849,43.601227 C68.3643497,43.5334969 68.3643497,43.4869325 68.4279957,43.3557055 C68.5128571,43.1694479 68.6995522,42.9620245 68.8268443,42.8011656 Z" id="Path" fill="url(#radialGradient-19)" fill-rule="nonzero"></path>
                                <path d="M123.354542,30.6732515 C123.430917,31.147362 123.066013,31.5918405 123.252708,32.0744172 C123.396972,32.1294479 123.706716,32.0955828 124.355906,31.6045399 C124.593518,31.4267485 124.797186,31.2701227 124.958422,31.3590184 C125.624584,31.7273006 124.852345,32.4426994 125.081471,32.9633742 C125.543966,34.0174233 126.087079,34.1613497 126.774456,34.3433742 C127.852196,34.6269939 127.987974,34.6608589 128.187399,34.796319 C128.221343,34.9656442 128.123753,35.1434356 128.2171,35.3085276 C128.505629,35.8249693 129.014797,36.1720859 129.273625,36.7139264 C129.409403,37.2684663 128.730512,36.9467485 128.234072,36.7096933 C128.021919,36.6123313 128.021919,36.6123313 127.41516,36.5615337 C127.657015,37.2642331 128.450469,37.6028834 128.607463,38.3606135 C128.692324,38.7669939 128.310448,38.9828834 127.763092,39.2453374 C127.618827,39.3130675 127.398188,39.4231288 127.478806,39.5839877 C127.521237,39.6686503 127.763092,39.9480368 129.0742,39.9141718 C129.630043,39.8972393 130.784158,39.8676074 130.813859,40.2443558 C130.843561,40.5872393 130.58049,40.5830061 130.181642,40.5745399 C129.795522,40.5703067 129.676716,40.676135 129.528209,40.8115951 C129.248166,41.0655828 129.205736,41.4634969 128.955394,41.7386503 C128.649893,42.0815337 128.234072,42.2931902 127.924328,42.6233742 C127.928571,42.6530061 127.932814,42.6995706 127.937058,42.7292025 C128.111023,42.7715337 128.111023,42.7715337 130.610192,42.4582822 C131.874627,42.3016564 133.151791,42.3990184 134.416226,42.2169939 C134.428955,42.2127607 134.450171,42.2127607 134.4629,42.2085276 L136.635352,41.4761963 C136.652324,41.4592638 136.652324,41.4253988 136.656567,41.4042331 C136.206802,40.9597546 135.629744,41.3534356 135.141791,41.1798773 C134.908422,40.5279755 135.515181,39.9311043 135.269083,39.2792025 C134.823561,38.115092 134.365309,38.1362577 133.996162,38.1574233 C133.156034,38.1997546 132.578977,37.0271779 132.578977,37.0144785 C132.58322,36.997546 132.595949,36.9763804 132.604435,36.9594479 C132.655352,36.9425153 132.655352,36.9425153 133.313028,37.0906748 C133.614286,37.1965031 134.02162,37.3404294 133.991919,37.1880368 C133.991919,37.1795706 133.987676,37.1711043 133.983433,37.162638 C133.941002,37.1033742 133.86887,36.9933129 133.639744,36.8155215 C132.617164,36.0239264 131.335757,35.6344785 130.406525,34.7158896 C129.961002,34.2756442 129.638529,33.712638 129.091173,33.3697546 C128.149211,32.7686503 127.283625,32.6458896 126.846588,32.6247239 C126.842345,32.6247239 126.842345,32.6247239 126.842345,32.6247239 C127.389701,32.133681 128.115267,29.703865 126.630192,29.6488344 C126.362878,29.636135 126.057377,29.6784663 125.85371,29.703865 C124.915991,29.8266258 124.746269,29.8477914 124.737783,29.6022699 C124.725053,29.1154601 125.560938,28.192638 124.877804,28.1545399 C124.856588,28.1545399 123.032068,28.1884049 122.760512,28.8403067 C122.735053,28.9038037 122.764755,28.9926994 122.777484,29.0561963 C122.862345,29.6319018 123.261194,30.097546 123.354542,30.6732515 Z" id="Path" fill="url(#radialGradient-20)" fill-rule="nonzero"></path>
                                <path d="M2.29550107,54.543865 C2.52886994,53.9935583 2.66040512,53.4093865 2.87680171,52.8548466 C3.00833689,52.5204294 3.16108742,52.1987117 3.28413646,51.8642945 C3.29686567,51.8261963 3.31383795,51.7753988 3.32656716,51.7373006 C3.3350533,51.7246012 3.42840085,51.4240491 3.27565032,51.4579141 C3.25443497,51.4621472 3.22049041,51.4833129 3.20351812,51.4960123 C2.70707889,51.8981595 2.1469936,54.4634356 2.24458422,54.6200613 C2.26579957,54.6031288 2.28701493,54.5692638 2.29550107,54.543865 Z" id="Path" fill="url(#radialGradient-21)" fill-rule="nonzero"></path>
                                <path d="M111.372111,18.4945399 C111.372111,18.464908 111.380597,18.4225767 111.367868,18.3929448 C111.266034,18.2109202 110.964776,17.8638037 110.612601,17.7241104 C110.553198,17.7029448 110.47258,17.6733129 110.413177,17.6563804 C109.882793,17.512454 109.318465,17.6394479 108.796567,17.4320245 C108.42742,17.283865 108.15162,16.9155828 107.706098,16.9409816 C107.19693,17.0637423 106.717463,17.2753988 106.208294,17.3939264 C105.716098,17.512454 105.1942,17.478589 104.706247,17.643681 C104.396503,17.7495092 104.621386,18.1304908 104.375288,18.2744172 C104.112217,18.4268098 103.840661,18.1389571 103.581834,18.2913497 C103.543646,18.3167485 103.488486,18.3506135 103.450299,18.3760123 C103.352708,18.8120245 103.74307,19.3157669 103.267846,19.6967485 C103.119339,19.6374847 102.007655,18.7231288 101.820959,18.3760123 C101.400896,17.5844172 99.6315352,17.0933742 99.139339,17.4870552 C99.2793603,17.8892025 99.7673134,17.8003067 99.9879531,18.0923926 C99.8479318,18.6723313 99.1563113,18.5792025 98.8805117,18.989816 C99.0417484,19.1041104 99.5975906,19.023681 99.9115778,18.9686503 C100.463177,18.8712883 102.19435,19.4681595 101.22693,20.2682209 C101.642751,20.7761963 102.19435,20.3444172 102.661087,20.4756442 C103.153284,20.6111043 103.153284,20.7931288 103.157527,21.2206748 C103.27209,21.3180368 103.36968,21.3603681 104.345586,21.2545399 C104.98629,21.1868098 105.202687,21.1698773 105.406354,21.1825767 C105.873092,21.2164417 106.305885,21.4196319 106.772623,21.4492638 C106.827783,21.4534969 106.904158,21.4577301 106.963561,21.4534969 C107.129041,21.4492638 107.358166,21.4492638 108.64806,21.1317791 C109.814904,20.8481595 111.601237,19.5570552 111.507889,19.1803067 C111.452729,18.9347853 111.240576,18.7696933 111.168443,18.532638 C111.227846,18.4860736 111.227846,18.4860736 111.372111,18.4945399 Z" id="Path" fill="url(#radialGradient-22)" fill-rule="nonzero"></path>
                                <path d="M41.7518124,96.6719632 C42.2609808,97.3365644 45.4644989,97.5736196 45.5196588,97.2053374 C45.5493603,97.0021472 41.4463113,92.2864417 41.4038806,92.2568098 C40.9838166,91.9689571 39.7066525,91.0884663 37.3432623,91.5625767 C36.0236674,91.9943558 35.098678,92.8917791 35.0901919,92.921411 C35.2599147,93.0822699 36.2697655,92.9341104 37.1014072,92.46 C38.2852239,91.7826994 39.078678,92.163681 39.1550533,92.3711043 C39.0914072,92.4896319 38.9301706,92.6589571 38.5482942,92.4430675 C38.531322,92.4515337 38.5185928,92.4642331 38.5058635,92.4769325 C38.5567804,93.0484049 39.5029851,93.2854601 40.1352026,93.446319 C41.2935608,93.7384049 41.369936,93.9839264 41.611791,94.7162577 C41.730597,95.0803067 41.8069723,95.3046626 42.0488273,95.6094479 C42.2185501,95.8211043 42.3415991,95.9777301 42.3500853,96.1004908 C42.3797868,96.4814724 41.9385075,96.4645399 41.7518124,96.6719632 Z" id="Path" fill="url(#radialGradient-23)" fill-rule="nonzero"></path>
                                <path d="M46.8519829,100.587607 C47.1829424,100.773865 46.9198721,101.383436 47.3908529,101.43 C48.2055224,101.514663 48.1164179,100.409816 48.8165245,100.342086 C48.8928998,100.33362 48.965032,100.337853 49.2111301,100.380184 C50.4670789,100.596074 52.6268017,100.659571 52.6352878,100.655337 C52.7413646,100.638405 52.8092537,100.617239 52.8177399,100.519877 C52.8389552,100.155828 52.5334542,99.8552761 52.6310448,99.4785276 C52.9280597,98.3144172 46.9665458,97.7979755 46.5889126,97.8614724 C46.495565,97.8911043 46.4785928,97.8995706 46.4404051,97.9334356 C46.436162,98.0223313 46.436162,98.0223313 46.5252665,98.1069939 C47.4035821,98.9155215 47.1192964,99.8595092 47.0726226,99.8976074 C46.9580597,99.9949693 46.4870789,99.918773 45.829403,99.8129448 C44.624371,99.6182209 44.505565,99.656319 44.4376759,99.6774847 C44.4504051,99.6986503 44.4588913,99.7325153 44.4801066,99.7452147 C45.2141578,100.181227 46.1094456,100.168528 46.8519829,100.587607 Z" id="Path" fill="url(#radialGradient-24)" fill-rule="nonzero"></path>
                                <path d="M58.855629,45.3452761 C58.3422175,45.5357669 59.5133049,46.1030061 59.7509168,46.2130675 C61.2911514,46.9326994 61.8257783,46.1538037 61.8300213,46.1453374 C62.0167164,45.7304908 59.4157143,45.2521472 58.855629,45.3452761 Z" id="Path" fill="url(#radialGradient-25)" fill-rule="nonzero"></path>
                                <path d="M155.152111,140.980123 C153.463369,143.151718 153.420938,143.16865 152.31774,143.562331 C151.413966,143.884049 151.12968,144.294663 149.767655,146.271534 C149.093006,147.25362 148.838422,147.452577 148.163774,147.977485 C146.118614,149.577607 143.356375,153.095337 143.275757,153.387423 C144.018294,153.39589 144.018294,153.39589 146.835693,150.70362 C149.135437,148.510859 151.150896,146.055644 153.348806,143.769755 C153.34032,143.833252 153.34032,143.833252 153.149382,144.150736 C153.238486,144.087239 153.238486,144.087239 153.446397,143.824785 C153.964051,143.172883 155.546716,141.035153 155.805544,140.27319 C155.788571,140.264724 155.767356,140.256258 155.750384,140.247791 C155.563689,140.446748 155.563689,140.446748 155.152111,140.980123 Z" id="Path" fill="url(#radialGradient-26)" fill-rule="nonzero"></path>
                                <path d="M98.0828145,125.055092 C97.9640085,124.432822 98.8041365,123.573497 98.0106823,123.17135 C97.4463539,122.88773 96.8905117,123.302577 96.3304264,123.184049 C94.5101493,122.790368 93.3178465,121.211411 91.5781876,120.678037 C88.9814286,119.882209 86.3040512,119.420798 83.6733475,118.764663 C82.1458422,118.20589 82.010064,116.440675 81.0681023,115.428957 C79.4599787,114.383374 78.2591898,112.690123 76.583177,111.737669 C74.3895096,110.488896 71.6866738,110.916442 69.5142217,109.599939 C67.7957783,108.558589 66.63742,106.789141 64.7916844,105.904417 C64.524371,105.777423 64.1382516,105.654663 63.8454797,105.612331 C54.9180597,104.270429 47.8660768,103.212147 47.0726226,110.273006 C44.4249467,108.393497 37.6190618,111.365153 38.2470362,106.979632 C38.6289126,104.32546 37.4917697,102.369755 37.4790405,102.365521 C35.4084222,101.319939 33.3081023,102.407853 31.2247548,102.263926 C31.9121322,99.9907362 31.9121322,99.9907362 31.4114499,98.9282209 C32.3152239,96.8243558 32.3152239,96.8243558 32.6461834,94.9109816 C32.2515778,94.5680982 28.7765032,91.77 28.0339659,99.6012883 C26.83742,99.525092 26.0651812,101.201411 24.6946695,100.418282 C21.4784222,98.5811043 20.38371,96.2444172 20.0145629,95.0168098 C19.5605544,93.4971166 20.8419616,92.3076074 20.8080171,90.8725767 C20.7910448,89.9539877 19.5520682,89.5095092 19.8745416,88.4596933 C20.2946055,87.1008589 22.8065032,84.5482822 23.39629,84.0953374 C24.4485714,83.2868098 28.5304051,84.2053988 28.5601066,84.2223313 C28.6704264,84.1334356 28.8146908,84.0106748 28.9250107,83.9217791 C28.6152665,83.5788957 28.1527719,83.4603681 27.800597,83.1809816 C27.8302985,83.0455215 27.8684861,82.8677301 27.8981876,82.7365031 C28.7128571,82.2666258 35.1962687,81.7036196 35.2259701,81.716319 C38.0051812,83.193681 36.3079531,87.0881595 38.9768443,88.6290184 C42.1209595,85.3187117 37.0717058,82.3809202 37.627548,79.0452147 C38.2088486,75.5952147 41.6627079,74.7951534 43.5890618,72.5939264 C43.5466311,72.5896933 43.5466311,72.5896933 43.5423881,72.5896933 C43.4575267,72.4923313 43.3429638,72.3653374 43.2581023,72.2679755 C43.2750746,72.1409816 43.2920469,71.9758896 43.3090192,71.8531288 C43.4278252,71.8192638 43.5890618,71.7684663 43.7121109,71.7346012 C43.7248401,71.5864417 43.7460554,71.3874847 43.7630277,71.235092 C43.6442217,71.1927607 43.4829851,71.1292638 43.3641791,71.0869325 L44.0048827,64.762638 C44.0557996,65.6981595 44.0557996,68.5428221 44.0515565,68.5470552 C44.3485714,68.3523313 44.3485714,68.3523313 44.6201279,64.1911656 C44.8492537,64.6356442 45.2481023,64.9869939 45.3541791,65.4992025 C45.9227505,64.5255828 45.7318124,63.2471779 46.6101279,62.396319 C46.6313433,62.3751534 50.3652452,60.3517178 50.6368017,60.3728834 C50.9847335,57.1091411 50.9847335,57.1091411 52.8177399,55.3989571 C53.127484,55.4158896 53.127484,55.4158896 58.4525373,52.3341718 C58.3973774,52.4442331 58.3294883,52.5966258 58.2743284,52.7066871 C58.5501279,52.8082822 58.9362473,52.9056442 59.2332623,52.8971779 C59.2332623,53.0368712 59.2332623,53.2188957 59.2332623,53.358589 C56.1527932,55.5428834 56.1527932,55.5428834 56.1103625,56.1778528 C58.1979531,56.2117178 64.6219616,52.4865644 63.4763326,49.5995706 C62.593774,50.1922086 62.5555864,51.2758896 62.0252026,52.0717178 C61.3378252,51.881227 60.7777399,51.7246012 60.3152452,51.584908 C60.7777399,51.487546 61.1299147,50.9922699 61.1299147,50.9880368 C61.1341578,50.9795706 61.1341578,50.9711043 61.1384009,50.962638 C61.1341578,50.9584049 61.1299147,50.9541718 61.1299147,50.9499387 C61.0917271,50.9414724 61.0747548,50.9414724 60.9517058,50.9584049 C60.124307,51.0853988 59.6533262,50.9076074 59.4878465,50.8229448 C59.0762687,50.6155215 59.0168657,50.3784663 59.0465672,50.0355828 C59.0550533,49.9043558 59.033838,49.8916564 59.0211087,49.8789571 C59.0126226,49.8831902 59.0041365,49.8916564 58.9956503,49.8916564 C58.9532196,49.9593865 58.6943923,50.6112883 58.9320043,51.0896319 C58.130064,50.7128834 57.9942857,50.3065031 57.6802985,49.3371166 C56.925032,49.0619632 56.8783582,49.0026994 56.5558849,48.6090184 C57.6845416,48.3042331 58.4992111,48.0841104 58.736823,46.953865 C58.1597655,46.3866258 58.1597655,46.3866258 50.1276333,51.3986503 C55.6563539,45.6627607 55.6563539,45.6627607 61.3335821,43.9441104 C62.6234755,44.8246012 68.4279957,41.9545399 69.3147974,40.350184 C69.0305117,39.6517178 69.0305117,39.6517178 69.4463326,38.6188344 C69.3699574,38.5003067 69.2681237,38.3394479 69.1875053,38.2209202 C68.7207676,38.1235583 68.2582729,38.0219632 67.7915352,37.9246012 C67.3969296,37.9203681 67.3884435,37.9203681 67.3884435,37.9203681 C67.1041578,37.95 66.2470576,38.0346626 64.7237953,39.0209816 C64.6728785,38.9066871 64.6049893,38.7542945 64.5540725,38.64 C65.0165672,37.9796319 65.2372068,37.8949693 66.9556503,37.2303681 C63.620597,37.5139877 60.3704051,37.7933742 56.7934968,38.1531902 C60.0776333,37.8103067 62.9374627,37.5520859 66.9768657,37.2219018 C67.0659701,37.1753374 67.1932623,37.1203067 67.2484222,37.0356442 C67.3247974,36.832454 65.9839872,35.6810429 64.2994883,36.1212883 C63.9176119,36.2186503 63.9176119,36.2186503 63.7181876,36.1551534 C63.5993817,35.8292025 63.8666951,35.4693865 63.6290832,35.156135 C63.3108529,34.7328221 62.6828785,34.8428834 62.3646482,34.4153374 C62.233113,34.237546 62.3222175,34.0766871 62.5768017,33.7253374 C62.9459488,33.2088957 62.9459488,33.2088957 62.1355224,31.7653988 C60.0903625,28.1206748 60.0903625,28.1206748 59.0889979,30.029816 C58.9320043,30.326135 59.3266098,30.6351534 59.0720256,30.9272393 C58.7792537,31.2658896 58.2488699,30.952638 57.9688273,31.3336196 C57.3323667,32.201411 57.3323667,32.201411 57.1541578,32.2564417 C56.0424733,32.595092 55.2659915,31.6934356 54.3028145,31.4817791 C54.1330917,31.181227 54.514968,29.2001227 55.1047548,28.7260123 C54.5404264,28.5355215 53.9421535,28.8106748 53.3735821,28.6032515 C53.2420469,28.5566871 53.1614286,28.4635583 52.9832196,28.1672393 C52.9238166,28.0656442 52.7837953,27.828589 51.3878252,27.3671779 C51.078081,27.2655828 51.0059488,27.269816 50.7683369,27.2952147 C49.4911727,27.6380982 48.120661,27.3544785 46.8731983,27.8751534 C47.098081,29.0561963 45.6427079,30.1229448 46.6271002,31.3590184 C46.436162,31.9347239 45.6808955,32.1294479 45.6427079,32.8109816 C45.5960341,33.5983436 46.3937313,34.0597546 46.4191898,34.8174847 C46.4234328,34.8471166 46.4785928,37.8949693 44.7177186,38.3013497 C44.3315991,38.3902454 43.4575267,38.6696319 43.6442217,39.3130675 C43.5593603,39.4231288 43.5169296,39.461227 43.1605117,39.7321472 C42.693774,41.5015951 43.8606183,43.7112883 41.8366738,45.1039877 C41.2044563,44.1388344 40.0800426,43.8594479 39.2059701,43.2371779 C39.681194,41.8487117 39.4775267,41.3407362 39.2144563,40.7015337 C39.3502345,40.5957055 39.5793603,40.4052147 39.7108955,40.2993865 C39.6896802,40.2274233 39.7108955,40.0750307 39.6896802,39.9988344 C39.5369296,39.9776687 39.3332623,39.9649693 39.1805117,39.9692025 C38.3488699,39.1691411 37.3432623,39.8930061 36.4522175,39.6517178 C35.5399574,39.4061963 35.0774627,38.4876074 34.2076333,38.178589 C34.0591258,38.1277914 33.8554584,38.0727607 33.6984648,38.047362 C32.9007676,37.9119018 32.3321962,38.4960736 31.6448188,38.6950307 C31.4072068,38.5003067 31.4072068,38.5003067 31.1017058,36.6842945 C30.995629,36.0535583 30.995629,36.0535583 29.4978252,35.9350307 C29.1583795,34.0047239 33.8766738,30.5123926 35.8878891,29.0223313 C35.6587633,28.4085276 34.9841151,28.6794479 34.5979957,28.3788957 C38.5143497,27.6846626 38.5143497,27.6846626 40.7462047,25.3141104 C39.2314286,25.5765644 38.9131983,25.6315951 37.6827079,24.9331288 C39.1423241,24.4082209 41.0220043,25.3225767 42.1294456,23.625092 C42.0148827,23.5446626 41.8366738,23.4811656 41.7008955,23.4726994 C41.7093817,23.4642331 42.4307036,22.5879755 43.1944563,23.0705521 C45.7360554,22.1561963 45.7360554,22.1561963 46.4022175,21.5720245 C46.5464819,21.4450307 46.7204478,21.2503067 46.8180384,21.0894479 C47.0895949,20.6280368 46.6398294,20.1369939 46.8859275,19.6755828 C47.1150533,19.2480368 47.6496802,19.2903681 47.9509382,18.9771166 C48.1164179,18.7654601 48.1418763,18.498773 48.2606823,18.2659509 C48.239467,18.2447853 46.0967164,16.0647239 45.3796375,19.154908 C44.0642857,19.9084049 43.113838,22.9901227 41.5142004,21.5635583 C41.6542217,20.6153374 43.5805757,20.0015337 42.6810448,19.0617791 C41.6627079,19.4469939 41.2511301,20.471411 40.4958635,21.1360123 C40.3176546,20.6238037 41.3529638,19.2734356 41.365693,19.2607362 C41.310533,19.2395706 41.310533,19.2395706 40.3982729,19.2057055 C41.9766951,16.6700613 41.9766951,16.6700613 41.9766951,16.3610429 C41.908806,16.3102454 41.8069723,16.2382822 41.7390832,16.1874847 C42.6386141,14.7990184 42.6386141,14.7990184 46.8477399,12.3268712 C46.554968,12.2930061 46.554968,12.2930061 46.0839872,12.3776687 C42.7192324,13.1650307 38.1664179,19.4681595 38.1324733,19.5274233 C38.1664179,19.5993865 38.2130917,19.6925153 38.2470362,19.7602454 C38.6076972,19.7602454 38.9598721,19.679816 39.31629,19.6586503 C39.3332623,19.7263804 39.3544776,19.8110429 39.3714499,19.878773 C38.6246695,20.2470552 38.5058635,20.3147853 38.1621748,20.6407362 C38.1536887,20.8185276 38.1536887,20.8185276 38.1536887,20.8185276 L38.1579318,20.8185276 C38.2215778,20.831227 38.3064392,20.8523926 38.3743284,20.865092 C37.6572495,22.0969325 36.0873134,22.5117791 35.5017697,23.8706135 C34.9501706,23.2991411 34.9501706,23.2991411 35.9812367,22.2069939 C35.3914499,22.0546012 35.3914499,22.0546012 33.4735821,23.5615951 C33.3675053,23.6420245 32.7268017,24.0484049 30.3591684,23.9383436 C30.2064179,23.7139877 30.2318763,23.4176687 30.0706397,23.197546 C28.1570149,23.688589 27.5884435,24.7976687 26.4513006,27.007362 C26.2391471,26.448589 26.7313433,25.9871779 26.6676972,25.4495706 C25.6323881,25.6146626 24.7880171,26.4612883 23.6593603,26.2919632 C24.1303412,25.826319 24.8898507,25.6569939 25.0680597,24.8992638 C25.0086567,24.8653988 24.9322814,24.8230675 24.8728785,24.7934356 C24.6182942,24.9331288 24.5801066,24.9542945 23.8460554,24.873865 C23.761194,24.7553374 23.6339019,24.611411 23.5278252,24.5140491 C23.0059275,24.6241104 22.7089126,25.068589 22.3015778,25.3437423 C22.3779531,25.2040491 22.4967591,25.0177914 22.5943497,24.8950307 C22.310064,25.0982209 22.310064,25.0982209 21.8518124,25.5426994 C22.0894243,25.0474233 22.0894243,25.0474233 22.8149893,24.1542331 C21.5675267,25.2971779 21.5675267,25.2971779 19.2889979,27.2317178 C19.2805117,27.2359509 19.2805117,27.2359509 19.2805117,27.2359509 C20.0018337,26.550184 20.7783156,25.9279141 21.5123667,25.2506135 C21.5038806,25.2548466 19.8787846,26.4739877 17.8421109,28.5016564 C17.91,28.3746626 18.0203198,28.2180368 18.1094243,28.1079755 C16.8492324,29.5218405 15.1689765,31.4013497 13.9087846,32.8152147 C8.46492537,39.8845399 8.36309168,40.02 5.95727079,44.0076074 L5.97424307,43.9779755 C6.0124307,43.9229448 6.05910448,43.8467485 6.09304904,43.7917178 C4.4806823,47.8428221 4.4806823,47.8428221 4.28550107,48.9476687 C4.18366738,49.2693865 4.04364606,49.6969325 3.9375693,50.0144172 C4.00970149,50.1371779 4.10729211,50.2980368 4.18366738,50.4165644 C3.67025586,52.0293865 3.67025586,52.0293865 3.11865672,54.7851534 C2.98287846,55.4455215 3.13987207,56.0508589 3.33929638,56.6477301 C3.25867804,56.6180982 3.13138593,56.5884663 2.93620469,56.5757669 C2.84285714,56.5673006 2.79618337,56.5546012 2.76223881,56.5165031 C2.73253731,56.4868712 2.7198081,56.4741718 2.66889126,56.2794479 C2.64343284,56.1778528 2.54159915,55.8476687 2.45673774,55.8307362 C2.45673774,55.8307362 2.45249467,55.8349693 2.45249467,55.8349693 C2.4482516,55.8434356 2.24882729,56.7874233 2.47795309,57.566319 C2.66464819,58.2055215 3.12289979,58.1166258 3.12714286,58.1166258 C3.24594883,58.0785276 3.35626866,57.96 3.42840085,57.7906748 C3.49204691,57.6382822 3.50053305,57.4689571 3.50053305,57.3927607 C3.50477612,57.2869325 3.4793177,57.1853374 3.47507463,57.0795092 C3.47507463,57.0668098 3.4793177,57.0583436 3.4793177,57.0456442 C3.70420043,57.6679141 3.92908316,58.2944172 3.89089552,58.9632515 C3.67025586,58.8404908 3.37324094,58.683865 3.14835821,58.5738037 C0.432793177,61.9476074 -0.513411514,78.8631902 1.29413646,82.0211043 C1.52750533,82.0592025 1.52750533,82.0592025 5.46083156,90.0979141 C5.18078891,90.1021472 4.80739872,90.1148466 4.52735608,90.127546 C5.00257996,91.1223313 8.47341151,95.5925153 8.50311301,95.6306135 C8.82134328,95.1692025 9.1480597,94.695092 7.55266525,92.4303681 C6.82710021,91.4017178 6.00818763,90.2418405 4.61646055,84.6202454 C6.3561194,85.890184 6.5428145,86.7156442 6.7719403,87.7654601 C6.93742004,88.5147239 7.12411514,89.3571166 7.45507463,89.8862577 C8.16366738,91.0165031 9.0334968,92.032454 9.78876333,93.1288344 C10.7689126,94.5511656 12.4364392,95.351227 13.2553518,96.9174847 C13.9172708,98.1789571 13.5990405,99.8679755 14.9653092,100.820429 C15.1477612,100.951656 15.4447761,101.053252 15.6526866,101.137914 C16.038806,101.286074 16.5267591,101.561227 16.9298507,101.662822 C18.330064,102.022638 19.7684648,102.242761 21.1729211,102.585644 C22.615565,102.932761 24.1473134,102.107301 25.5560128,102.911595 C28.7892324,104.748773 28.7892324,104.748773 29.9263753,104.871534 C30.0960981,104.888466 30.3252239,104.918098 30.4949467,104.939264 C35.5739019,105.646196 37.6784648,111.923926 43.2453731,111.724969 C45.7233262,107.601902 47.2465885,112.546196 47.7939446,114.861718 C47.9636674,115.594049 47.9636674,115.594049 46.5719403,118.641902 C46.554968,118.692699 45.2099147,124.187301 45.7869723,125.211718 C45.8803198,125.381043 45.9991258,125.609632 46.1094456,125.766258 C47.9339659,128.466994 55.4272281,135.858037 55.4866311,135.913067 C57.3153945,137.487791 59.7933475,137.847607 61.7239446,139.227607 C63.1920469,140.281656 64.2952452,142.347423 64.8213859,145.052393 C64.8468443,145.175153 67.719403,158.022699 72.7134968,165.036994 C79.0526439,173.935031 85.1838806,172.952945 85.2390405,172.936012 C79.3369296,169.900859 79.3369296,169.900859 79.8927719,167.407546 C79.0738593,166.535521 79.0738593,166.535521 77.5251386,162.276994 C77.7627505,162.200798 77.7627505,162.200798 78.878678,162.234663 C78.8701919,162.120368 78.8701919,162.120368 77.5251386,160.257791 C78.5604478,159.339202 78.5604478,159.339202 78.4840725,158.606871 C78.5604478,158.560307 78.6665245,158.492577 78.7428998,158.446012 C80.5759062,159.004785 81.1869083,157.493558 80.7159275,156.803558 L80.1770576,156.050061 C84.3437527,155.935767 86.1173561,145.87362 86.1343284,145.772025 C86.7326013,144.485153 88.3025373,143.727423 88.9517271,143.456503 C90.4325586,142.842699 90.453774,141.11135 91.4975693,140.163129 C91.9685501,139.739816 92.3886141,139.727117 92.7407889,139.773681 C93.351791,139.849877 93.4027079,139.858344 93.4790832,139.282638 C93.648806,138.021166 93.5342431,136.751227 93.5936461,135.489755 C93.6275906,134.782822 93.2117697,134.054724 93.6785075,133.364724 C94.2258635,132.568896 94.4252878,132.268344 94.0391684,131.743436 C93.9670362,131.646074 93.890661,131.497914 93.8652026,131.38362 C97.3530064,130.113681 98.5919829,126.346196 98.596226,126.312331 C98.6004691,126.27 98.6004691,126.210736 98.5919829,126.168405 C98.5028785,125.774724 98.1591898,125.469939 98.0828145,125.055092 Z M10.611919,46.4162577 C11.8466525,46.0141104 13.1492751,45.6288957 14.4900853,45.2606135 C13.1535181,45.6288957 11.8551386,46.0141104 10.611919,46.4162577 Z M50.174307,118.197423 C51.7484861,117.998466 53.3523667,117.807975 55.0368657,117.617485 C53.4839019,117.795276 51.8757783,117.985767 50.174307,118.197423 Z M85.5190832,140.230859 C85.4554371,139.621288 85.2475267,137.619018 84.9250533,134.07589 C85.1159915,136.141656 85.3154158,138.198957 85.5360554,140.362086 C85.5275693,140.319755 85.5233262,140.27319 85.5190832,140.230859 Z M83.8388273,120.974356 C83.8473134,121.08865 83.8557996,121.202945 83.8642857,121.313006 C83.8557996,121.202945 83.8473134,121.084417 83.8388273,120.974356 Z" id="Shape" fill="url(#radialGradient-27)" fill-rule="nonzero"></path>
                                <path d="M54.7313646,101.044785 C54.2518977,101.366503 54.8713859,101.98454 55.4569296,102.081902 C55.8727505,102.149632 57.2050746,101.963374 57.2644776,101.832147 C57.2941791,101.764417 57.1965885,101.599325 56.2079531,101.29454 C55.1132409,100.947423 54.9520043,100.989755 54.7313646,101.044785 Z" id="Path" fill="url(#radialGradient-28)" fill-rule="nonzero"></path>
                                <g id="Green-Spots" stroke-width="1" fill="none" fill-rule="evenodd" transform="translate(12.149254, 2.828221)">
                                    <g id="Clean-Spots" transform="translate(144.000000, 118.000000)">
                                        <circle id="Oval" fill="#FFFFFF" filter="url(#filter-29)" cx="3" cy="3" r="3"></circle>
                                        <circle id="Oval" fill="#00CC76" filter="url(#filter-30)" cx="3" cy="3" r="2"></circle>
                                    </g>
                                    <g id="Clean-Spots" transform="translate(138.000000, 94.000000)">
                                        <circle id="Oval" fill="#FFFFFF" filter="url(#filter-31)" cx="3" cy="3" r="3"></circle>
                                        <circle id="Oval" fill="#00CC76" filter="url(#filter-32)" cx="3" cy="3" r="2"></circle>
                                    </g>
                                    <g id="Clean-Spots" transform="translate(135.000000, 72.000000)">
                                        <circle id="Oval" fill="#FFFFFF" filter="url(#filter-33)" cx="3" cy="3" r="3"></circle>
                                        <circle id="Oval" fill="#00CC76" filter="url(#filter-34)" cx="3" cy="3" r="2"></circle>
                                    </g>
                                    <g id="Clean-Spots" transform="translate(118.000000, 98.000000)">
                                        <circle id="Oval" fill="#FFFFFF" filter="url(#filter-35)" cx="3" cy="3" r="3"></circle>
                                        <circle id="Oval" fill="#00CC76" filter="url(#filter-36)" cx="3" cy="3" r="2"></circle>
                                    </g>
                                    <g id="Clean-Spots" transform="translate(121.000000, 54.000000)">
                                        <circle id="Oval" fill="#FFFFFF" filter="url(#filter-37)" cx="3" cy="3" r="3"></circle>
                                        <circle id="Oval" fill="#00CC76" filter="url(#filter-38)" cx="3" cy="3" r="2"></circle>
                                    </g>
                                    <g id="Clean-Spots" transform="translate(129.000000, 42.000000)">
                                        <circle id="Oval" fill="#FFFFFF" filter="url(#filter-39)" cx="3" cy="3" r="3"></circle>
                                        <circle id="Oval" fill="#00CC76" filter="url(#filter-40)" cx="3" cy="3" r="2"></circle>
                                    </g>
                                    <g id="Clean-Spots" transform="translate(141.000000, 46.000000)">
                                        <circle id="Oval" fill="#FFFFFF" filter="url(#filter-41)" cx="3" cy="3" r="3"></circle>
                                        <circle id="Oval" fill="#00CC76" filter="url(#filter-42)" cx="3" cy="3" r="2"></circle>
                                    </g>
                                    <g id="Clean-Spots" transform="translate(121.000000, 19.000000)">
                                        <circle id="Oval" fill="#FFFFFF" filter="url(#filter-43)" cx="3" cy="3" r="3"></circle>
                                        <circle id="Oval" fill="#00CC76" filter="url(#filter-44)" cx="3" cy="3" r="2"></circle>
                                    </g>
                                    <g id="Clean-Spots" transform="translate(112.000000, 33.000000)">
                                        <circle id="Oval" fill="#FFFFFF" filter="url(#filter-45)" cx="3" cy="3" r="3"></circle>
                                        <circle id="Oval" fill="#00CC76" filter="url(#filter-46)" cx="3" cy="3" r="2"></circle>
                                    </g>
                                    <g id="Clean-Spots" transform="translate(65.000000, 13.000000)">
                                        <circle id="Oval" fill="#FFFFFF" filter="url(#filter-47)" cx="3" cy="3" r="3"></circle>
                                        <circle id="Oval" fill="#00CC76" filter="url(#filter-48)" cx="3" cy="3" r="2"></circle>
                                    </g>
                                    <g id="Clean-Spots" transform="translate(43.000000, 33.000000)">
                                        <circle id="Oval" fill="#FFFFFF" filter="url(#filter-49)" cx="3" cy="3" r="3"></circle>
                                        <circle id="Oval" fill="#00CC76" filter="url(#filter-50)" cx="3" cy="3" r="2"></circle>
                                    </g>
                                    <g id="Clean-Spots" transform="translate(25.000000, 42.000000)">
                                        <circle id="Oval" fill="#FFFFFF" filter="url(#filter-51)" cx="3" cy="3" r="3"></circle>
                                        <circle id="Oval" fill="#00CC76" filter="url(#filter-52)" cx="3" cy="3" r="2"></circle>
                                    </g>
                                    <g id="Clean-Spots" transform="translate(12.000000, 25.000000)">
                                        <circle id="Oval" fill="#FFFFFF" filter="url(#filter-53)" cx="3" cy="3" r="3"></circle>
                                        <circle id="Oval" fill="#00CC76" filter="url(#filter-54)" cx="3" cy="3" r="2"></circle>
                                    </g>
                                    <g id="Clean-Spots" transform="translate(0.000000, 36.000000)">
                                        <circle id="Oval" fill="#FFFFFF" filter="url(#filter-55)" cx="3" cy="3" r="3"></circle>
                                        <circle id="Oval" fill="#00CC76" filter="url(#filter-56)" cx="3" cy="3" r="2"></circle>
                                    </g>
                                    <g id="Clean-Spots" transform="translate(9.000000, 54.000000)">
                                        <circle id="Oval" fill="#FFFFFF" filter="url(#filter-57)" cx="3" cy="3" r="3"></circle>
                                        <circle id="Oval" fill="#00CC76" filter="url(#filter-58)" cx="3" cy="3" r="2"></circle>
                                    </g>
                                    <g id="Clean-Spots" transform="translate(22.000000, 63.000000)">
                                        <circle id="Oval" fill="#FFFFFF" filter="url(#filter-59)" cx="3" cy="3" r="3"></circle>
                                        <circle id="Oval" fill="#00CC76" filter="url(#filter-60)" cx="3" cy="3" r="2"></circle>
                                    </g>
                                    <g id="Clean-Spots" transform="translate(0.000000, 73.000000)">
                                        <circle id="Oval" fill="#FFFFFF" filter="url(#filter-61)" cx="3" cy="3" r="3"></circle>
                                        <circle id="Oval" fill="#00CC76" filter="url(#filter-62)" cx="3" cy="3" r="2"></circle>
                                    </g>
                                    <g id="Clean-Spots" transform="translate(3.000000, 94.000000)">
                                        <circle id="Oval" fill="#FFFFFF" filter="url(#filter-63)" cx="3" cy="3" r="3"></circle>
                                        <circle id="Oval" fill="#00CC76" filter="url(#filter-64)" cx="3" cy="3" r="2"></circle>
                                    </g>
                                    <g id="Clean-Spots" transform="translate(40.000000, 104.000000)">
                                        <circle id="Oval" fill="#FFFFFF" filter="url(#filter-65)" cx="3" cy="3" r="3"></circle>
                                        <circle id="Oval" fill="#00CC76" filter="url(#filter-66)" cx="3" cy="3" r="2"></circle>
                                    </g>
                                    <g id="Clean-Spots" transform="translate(78.000000, 121.000000)">
                                        <circle id="Oval" fill="#FFFFFF" filter="url(#filter-67)" cx="3" cy="3" r="3"></circle>
                                        <circle id="Oval" fill="#00CC76" filter="url(#filter-68)" cx="3" cy="3" r="2"></circle>
                                    </g>
                                    <g id="Clean-Spots" transform="translate(59.000000, 118.000000)">
                                        <circle id="Oval" fill="#FFFFFF" filter="url(#filter-69)" cx="3" cy="3" r="3"></circle>
                                        <circle id="Oval" fill="#00CC76" filter="url(#filter-70)" cx="3" cy="3" r="2"></circle>
                                    </g>
                                    <g id="Clean-Spots" transform="translate(59.000000, 155.000000)">
                                        <circle id="Oval" fill="#FFFFFF" filter="url(#filter-71)" cx="3" cy="3" r="3"></circle>
                                        <circle id="Oval" fill="#00CC76" filter="url(#filter-72)" cx="3" cy="3" r="2"></circle>
                                    </g>
                                    <g id="Clean-Spots" transform="translate(40.000000, 121.000000)">
                                        <circle id="Oval" fill="#FFFFFF" filter="url(#filter-73)" cx="3" cy="3" r="3"></circle>
                                        <circle id="Oval" fill="#00CC76" filter="url(#filter-74)" cx="3" cy="3" r="2"></circle>
                                    </g>
                                    <g id="Clean-Spots" transform="translate(53.000000, 135.000000)">
                                        <circle id="Oval" fill="#FFFFFF" filter="url(#filter-75)" cx="3" cy="3" r="3"></circle>
                                        <circle id="Oval" fill="#00CC76" filter="url(#filter-76)" cx="3" cy="3" r="2"></circle>
                                    </g>
                                    <g id="Clean-Spots" transform="translate(127.000000, 135.000000)">
                                        <circle id="Oval" fill="#FFFFFF" filter="url(#filter-77)" cx="3" cy="3" r="3"></circle>
                                        <circle id="Oval" fill="#00CC76" filter="url(#filter-78)" cx="3" cy="3" r="2"></circle>
                                    </g>
                                </g>
                            </g>
                        </g>
                        <g id="Logo-Expand" mask="url(#mask-2)">
                            <g transform="translate(85.000000, 33.500000) scale(-1, 1) translate(-85.000000, -33.500000) translate(16.000000, 16.000000)">
                                <text id="Revitalize" fill="none" transform="translate(60.000000, 20.000000) scale(-1, 1) translate(-60.000000, -20.000000) " font-family="Phosphate-Solid, Phosphate" font-size="25" font-weight="normal">
                                    <tspan x="0.0125" y="29" fill="#00CC76">Revitalize</tspan>
                                </text>
                                <path d="M117.408402,29 L114.18509,22.1912305 C111.762477,17.07375 113.181444,11.074375 117.281421,7.60173828 C119.833787,5.43976563 122.268599,3.13789063 124.503236,0.636074219 L125.071045,0 L126.391865,1.78248047 C128.021542,3.98183594 129.265287,6.32109375 130,8.6909375 L117.408402,29 Z" id="Path" fill="#1FB36F" fill-rule="nonzero"></path>
                                <path d="M137.503839,8.22103004 L137.078672,6 C134.976459,11.1772382 129.584421,13.9279868 126.493997,17.5 C121.088776,23.7470057 118,29 118,29 L121.200286,29 C135.423049,29 139.562108,18.9703563 137.503839,8.22103004 L137.503839,8.22103004 Z" id="Path" fill="#1FB36F" fill-rule="nonzero"></path>
                                <path d="M137,6 L136.228096,6.32425082 C134.325962,7.12311301 132.386629,7.81465679 130.422677,8.42241186 C129.251418,8.78453976 128.070859,9.11682511 126.884829,9.42385907 C121.782932,10.744392 118,15.5765901 118,21.3367767 L118,29 C118,29 131.245458,20.2303067 137,6 Z" id="Path" fill="#00CC76" fill-rule="nonzero"></path>
                            </g>
                        </g>
                        <rect id="Rectangle" fill="#00CC76" opacity="0.300757999" mask="url(#mask-2)" x="0.149253731" y="122.247791" width="328" height="23.5804294"></rect>
                    </g>
                </g>
            </g>
        </g>
    </g>
</svg>