<?xml version="1.0" encoding="UTF-8"?>
<svg width="32px" height="28px" viewBox="0 0 32 28" version="1.1" xmlns="http://www.w3.org/2000/svg" xmlns:xlink="http://www.w3.org/1999/xlink">
    <title>crown</title>
    <g id="Page-1" stroke="none" stroke-width="1" fill="none" fill-rule="evenodd">
        <g id="Home/content&gt;min.marg.16px" transform="translate(-164.000000, -407.000000)" fill="#1FB36F" fill-rule="nonzero">
            <g id="Div.TopRank" transform="translate(16.000000, 380.000000)">
                <g id="MidPic" transform="translate(80.000000, 27.000000)">
                    <g id="crown" transform="translate(68.000000, 0.000000)">
                        <circle id="Oval" cx="16" cy="1" r="1"></circle>
                        <circle id="Oval" cx="31" cy="9" r="1"></circle>
                        <circle id="Oval" cx="1" cy="9" r="1"></circle>
                        <path d="M3.69535158,23 L28.3076751,23 L30.966394,11.7097805 C31.132564,11.0169442 30.6660099,10.3301325 29.9310275,10.1734913 C29.5667319,10.0951707 29.189654,10.161442 28.8764876,10.3602559 L21.9804354,14.691989 L17.2190277,5.7092156 C16.8802966,5.07662593 16.0622293,4.81756539 15.3911584,5.13687256 C15.1291212,5.2633905 14.9118221,5.46220439 14.783999,5.7092156 L10.0225913,14.691989 L3.12014796,10.3602559 C2.49381514,9.96865273 1.65018317,10.125294 1.22836719,10.715711 C1.02385035,11.0048949 0.953547682,11.3663747 1.0302415,11.7097805 L3.69535158,23 Z" id="Path"></path>
                        <path d="M4,24 L4,26.66875 C4,27.40625 4.60015629,28 5.33159677,28 L26.6684032,28 C27.4060953,28 28,27.4 28,26.66875 L28,24 L4,24 Z" id="Path"></path>
                    </g>
                </g>
            </g>
        </g>
    </g>
</svg>